<svg xmlns="http://www.w3.org/2000/svg" xmlns:xlink="http://www.w3.org/1999/xlink" width="200" zoomAndPan="magnify" viewBox="0 0 150 149.999998" height="200" preserveAspectRatio="xMidYMid meet" version="1.0"><defs><clipPath id="1f577bc8cc"><path d="M 4.5 67 L 16 67 L 16 71 L 4.5 71 Z M 4.5 67 " clip-rule="nonzero"/></clipPath><clipPath id="39fbf407cd"><path d="M 118.488281 50.628906 L 145.53125 50.628906 L 145.53125 105.46875 L 118.488281 105.46875 Z M 118.488281 50.628906 " clip-rule="nonzero"/></clipPath></defs><path fill="#d6bfff" d="M 149.902344 52.640625 C 149.285156 36 136.328125 25.945312 134.476562 24.660156 C 125.53125 18.433594 114.625 15.929688 103.867188 17.089844 C 97.53125 17.78125 91.273438 19.179688 84.902344 19.289062 C 64.613281 19.667969 46.941406 3.390625 26.035156 9.617188 C 13.894531 13.226562 1.355469 25.839844 0.449219 39.300781 C -0.222656 49.175781 6.945312 56.324219 11.972656 64.054688 C 20.539062 77.246094 20.191406 93.125 17.199219 108.09375 C 15.621094 115.96875 14.203125 124.226562 16.402344 131.957031 C 18.851562 140.558594 27.832031 146.527344 36.707031 145.949219 C 47.050781 145.277344 53.472656 134.714844 63.890625 132.609375 C 72.800781 130.8125 80.601562 135.042969 89.367188 135.386719 C 95.917969 135.640625 102.414062 133.226562 107.640625 129.273438 C 115.496094 123.300781 119.671875 115.808594 120.578125 106.207031 C 121.304688 98.515625 120.851562 90.328125 127.816406 85.230469 C 130.792969 83.054688 134.222656 81.582031 137.273438 79.496094 C 146.054688 73.507812 150.285156 63.054688 149.902344 52.640625 Z M 149.902344 52.640625 " fill-opacity="1" fill-rule="nonzero"/><path fill="#b6a5c9" d="M 20.601562 57.964844 C 20.128906 60.09375 26.765625 62.628906 27.277344 65.105469 C 27.605469 66.703125 29.289062 69.691406 31.097656 72.222656 C 33.363281 75.398438 35.738281 77.601562 36.191406 79.742188 C 36.644531 81.886719 35.960938 89.066406 40.992188 91.039062 C 45.859375 92.941406 49.507812 88.761719 50.699219 85.109375 C 52.210938 80.476562 50.371094 77.714844 49.742188 78.351562 C 49.105469 78.988281 47.839844 85.628906 46.058594 83.328125 C 45.246094 82.273438 47.257812 80.46875 48.375 76.617188 C 50.015625 70.933594 46.105469 65.082031 44.917969 67.648438 C 43.726562 70.210938 46.238281 76.636719 43.003906 75.816406 C 40.84375 75.269531 43.578125 69.691406 43.117188 67.371094 C 42.109375 62.367188 35 60.375 36.507812 62.289062 C 39.621094 66.242188 38.253906 70.125 36.699219 68.261719 C 35.148438 66.402344 35.917969 64.628906 33.566406 61.695312 C 31.53125 59.164062 20.785156 57.125 20.601562 57.964844 " fill-opacity="1" fill-rule="nonzero"/><path fill="#9e8cb3" d="M 38.691406 99.511719 C 38.691406 99.511719 38.691406 99.511719 38.691406 99.515625 C 38.792969 99.542969 38.894531 99.484375 38.921875 99.386719 C 40.234375 94.746094 40.386719 89.828125 39.386719 84.769531 C 38.84375 82.027344 37.976562 79.351562 36.8125 76.8125 C 33.605469 69.828125 30.722656 65.941406 28.871094 63.914062 C 26.84375 61.699219 25.585938 61.152344 25.535156 61.128906 C 25.4375 61.089844 25.328125 61.132812 25.289062 61.230469 C 25.25 61.324219 25.292969 61.433594 25.386719 61.472656 C 25.40625 61.480469 26.648438 62.03125 28.625 64.203125 C 30.453125 66.210938 33.300781 70.054688 36.472656 76.96875 C 38.410156 81.199219 41.261719 89.71875 38.5625 99.285156 C 38.535156 99.382812 38.59375 99.484375 38.691406 99.511719 " fill-opacity="1" fill-rule="nonzero"/><path fill="#9e8cb3" d="M 39.550781 94.75 C 35.753906 98.367188 30.570312 96.347656 27.203125 95.867188 C 23.839844 95.390625 21.761719 98.136719 19.429688 95.90625 C 17.097656 93.671875 18.765625 89.113281 16.800781 87.949219 C 14.835938 86.785156 12.429688 85.75 12.933594 83.535156 C 13.4375 81.316406 17.5625 78.917969 21.074219 79.441406 C 23.019531 79.726562 24.289062 81.644531 25.261719 81.105469 C 26.234375 80.570312 30.441406 78.320312 32.652344 80.78125 C 34.859375 83.242188 43.34375 91.132812 39.550781 94.75 " fill-opacity="1" fill-rule="nonzero"/><path fill="#cbbfd9" d="M 44.550781 99.617188 C 44.566406 99.609375 44.578125 99.601562 44.589844 99.589844 C 44.679688 99.507812 44.683594 99.371094 44.601562 99.28125 C 37.425781 91.558594 29.828125 87.617188 24.71875 85.671875 C 19.175781 83.558594 15.273438 83.273438 15.234375 83.269531 C 15.113281 83.261719 15.011719 83.351562 15.003906 83.472656 C 14.992188 83.589844 15.085938 83.695312 15.203125 83.703125 C 15.242188 83.703125 19.097656 83.992188 24.582031 86.082031 C 29.644531 88.011719 37.167969 91.921875 44.285156 99.578125 C 44.355469 99.652344 44.464844 99.667969 44.550781 99.617188 " fill-opacity="1" fill-rule="nonzero"/><path fill="#e7daf7" d="M 13.761719 72.785156 C 14.027344 73.25 16.234375 73.136719 18.039062 71.804688 C 19.660156 70.609375 22.0625 70.058594 22.0625 70.058594 C 22.0625 70.058594 19.507812 69.410156 17.265625 70.074219 C 15.027344 70.734375 13.300781 71.980469 13.761719 72.785156 " fill-opacity="1" fill-rule="nonzero"/><path fill="#e7daf7" d="M 17.90625 74.851562 C 18.636719 75.746094 20.722656 75.207031 23.03125 74.511719 C 25.371094 73.808594 28.769531 72.953125 28.769531 72.953125 C 28.769531 72.953125 23.585938 71.902344 20.777344 72.511719 C 17.972656 73.121094 17.214844 74.011719 17.90625 74.851562 " fill-opacity="1" fill-rule="nonzero"/><path fill="#e7daf7" d="M 24.09375 77.328125 C 24.460938 77.832031 25.820312 77.804688 28.128906 77.113281 C 30.464844 76.410156 34.472656 76.96875 34.472656 76.96875 C 34.472656 76.96875 30.125 74.082031 27.3125 74.691406 C 24.507812 75.300781 23.453125 76.449219 24.09375 77.328125 " fill-opacity="1" fill-rule="nonzero"/><path fill="#e7daf7" d="M 29.664062 79.816406 C 29.703125 80.742188 31.0625 81.035156 34.046875 81 C 36.488281 80.972656 40.144531 82.167969 40.144531 82.167969 C 40.144531 82.167969 36.710938 79.609375 33.910156 78.945312 C 31.144531 78.285156 29.625 78.730469 29.664062 79.816406 " fill-opacity="1" fill-rule="nonzero"/><path fill="#e7daf7" d="M 34.285156 83.699219 C 34.320312 84.625 35.519531 85.484375 38.519531 84.867188 C 40.910156 84.378906 43.992188 86.421875 43.992188 86.421875 C 43.992188 86.421875 40.804688 83.375 38.007812 82.710938 C 35.238281 82.050781 34.242188 82.613281 34.285156 83.699219 " fill-opacity="1" fill-rule="nonzero"/><path fill="#e7daf7" d="M 38.296875 87.355469 C 38.332031 88.285156 39.320312 89.121094 42.421875 89.652344 C 44.828125 90.066406 47.644531 91.378906 47.644531 91.378906 C 47.644531 91.378906 44.839844 88.90625 42.273438 87.617188 C 40.273438 86.609375 38.257812 86.269531 38.296875 87.355469 " fill-opacity="1" fill-rule="nonzero"/><path fill="#e7daf7" d="M 14.703125 65.109375 C 14.203125 65.882812 17.265625 67.59375 18.429688 67.882812 C 19.59375 68.171875 24.355469 70.894531 24.355469 70.894531 C 24.355469 70.894531 21.59375 67.328125 19.085938 65.863281 C 16.582031 64.398438 15.214844 64.320312 14.703125 65.109375 " fill-opacity="1" fill-rule="nonzero"/><path fill="#e7daf7" d="M 22.757812 66.746094 C 22.257812 67.519531 24.453125 69.558594 25.832031 70.421875 C 26.847656 71.0625 29.617188 73.464844 29.617188 73.464844 C 29.617188 73.464844 28.636719 69.945312 26.625 67.855469 C 24.339844 65.484375 23.273438 65.960938 22.757812 66.746094 " fill-opacity="1" fill-rule="nonzero"/><path fill="#e7daf7" d="M 31.023438 70.640625 C 30.519531 71.414062 32.382812 73.511719 33.761719 74.378906 C 34.773438 75.015625 37.242188 79.160156 37.242188 79.160156 C 37.242188 79.160156 36.566406 73.898438 34.554688 71.808594 C 32.269531 69.4375 31.535156 69.851562 31.023438 70.640625 " fill-opacity="1" fill-rule="nonzero"/><path fill="#e7daf7" d="M 37.710938 74.425781 C 36.15625 75.113281 38.421875 77.75 39.320312 79.105469 C 39.914062 80 41.238281 83.242188 41.238281 83.242188 C 41.238281 83.242188 40.707031 81.195312 40.46875 78.308594 C 40.324219 76.511719 39.738281 73.527344 37.710938 74.425781 " fill-opacity="1" fill-rule="nonzero"/><path fill="#e7daf7" d="M 42.140625 78.378906 C 40.59375 79.546875 42.292969 81.964844 42.75 82.867188 C 43.65625 84.675781 44.730469 87.191406 44.730469 87.191406 C 44.730469 87.191406 44.691406 84.769531 44.648438 82 C 44.59375 78.710938 42.890625 77.816406 42.140625 78.378906 " fill-opacity="1" fill-rule="nonzero"/><path fill="#e7daf7" d="M 46.203125 82.75 C 45.699219 83.519531 45.558594 84.960938 46.148438 86.984375 C 46.484375 88.136719 46.96875 90.257812 46.96875 90.257812 C 46.96875 90.257812 47.824219 88.285156 47.996094 86.570312 C 48.332031 83.296875 46.714844 81.960938 46.203125 82.75 " fill-opacity="1" fill-rule="nonzero"/><path fill="#d1bee7" d="M 51.011719 98.429688 C 51.035156 98.386719 51.046875 98.332031 51.03125 98.28125 C 49.8125 94.183594 47.398438 90 43.863281 85.847656 C 40.9375 82.410156 37.234375 78.957031 32.546875 75.28125 C 29.511719 72.90625 26.089844 71.109375 22.371094 69.945312 C 19.375 69.003906 17.011719 68.734375 15.878906 68.605469 C 15.585938 68.574219 15.335938 68.542969 15.273438 68.523438 C 15.175781 68.492188 15.066406 68.542969 15.035156 68.644531 C 15.003906 68.742188 15.058594 68.84375 15.15625 68.878906 C 15.25 68.910156 15.433594 68.929688 15.835938 68.976562 C 22.09375 69.695312 27.640625 71.914062 32.316406 75.574219 C 42.46875 83.53125 48.472656 90.992188 50.671875 98.386719 C 50.699219 98.488281 50.804688 98.542969 50.902344 98.515625 C 50.949219 98.5 50.988281 98.46875 51.011719 98.429688 " fill-opacity="1" fill-rule="nonzero"/><g clip-path="url(#1f577bc8cc)"><path fill="#e7daf7" d="M 4.855469 69.878906 C 4.957031 70.5625 7.695312 70.980469 10.179688 70.582031 C 12.691406 70.179688 15.742188 68.777344 15.742188 68.777344 C 15.742188 68.777344 13.054688 67.167969 10.144531 67.367188 C 7.238281 67.566406 4.675781 68.6875 4.855469 69.878906 " fill-opacity="1" fill-rule="nonzero"/></g><path fill="#ee9775" d="M 100.535156 84.105469 C 100.859375 89.242188 103.675781 97.160156 103.519531 97.566406 C 102.828125 99.371094 103.171875 99.703125 104.328125 99.648438 C 104.972656 99.621094 104.621094 97.945312 104.726562 97.273438 C 105.570312 91.898438 106.390625 85.488281 106.515625 83.066406 C 106.59375 81.601562 107.035156 74.277344 106.152344 69.679688 C 105.753906 67.609375 104.28125 66.660156 102.605469 66.757812 C 96.773438 67.089844 100.121094 77.609375 100.535156 84.105469 " fill-opacity="1" fill-rule="nonzero"/><path fill="#534463" d="M 100.265625 81.515625 C 99.429688 75.144531 97.5 67.050781 102.605469 66.757812 C 104.28125 66.660156 105.753906 67.609375 106.152344 69.679688 C 106.878906 73.457031 106.710938 79.074219 106.582031 81.773438 C 103.972656 81.960938 101.753906 81.71875 100.265625 81.515625 " fill-opacity="1" fill-rule="nonzero"/><path fill="#ee9775" d="M 107.742188 83.300781 C 107.070312 90.316406 108.132812 96.734375 108.082031 97.171875 C 107.992188 97.929688 107.886719 98.964844 108.375 99.105469 C 108.949219 99.265625 110.941406 99.003906 111.519531 98.902344 C 111.636719 98.882812 111.710938 98.753906 111.664062 98.640625 C 111.289062 97.707031 109.328125 97.804688 109.425781 97.179688 C 110.273438 91.804688 111.816406 87.265625 112.167969 83.710938 C 112.398438 81.382812 113.117188 65.109375 108.097656 66.1875 C 102.070312 67.480469 105.433594 73.019531 106.832031 78.738281 C 107.15625 80.058594 107.859375 82.085938 107.742188 83.300781 " fill-opacity="1" fill-rule="nonzero"/><path fill="#534463" d="M 108.097656 66.1875 C 112.269531 65.292969 113.328125 75.644531 113.4375 80.5 C 111.917969 80.90625 109.753906 81.429688 107.59375 81.679688 C 107.386719 80.671875 107.035156 79.5625 106.832031 78.738281 C 105.433594 73.019531 102.070312 67.480469 108.097656 66.1875 " fill-opacity="1" fill-rule="nonzero"/><path fill="#ffc14d" d="M 108.898438 97.660156 C 109.261719 97.585938 109.53125 97.476562 109.726562 97.371094 C 110.273438 97.636719 111.390625 97.765625 111.664062 98.449219 C 111.710938 98.5625 111.636719 98.691406 111.519531 98.710938 C 110.941406 98.8125 108.949219 99.074219 108.375 98.910156 C 108.019531 98.808594 107.980469 98.234375 108.015625 97.636719 C 108.261719 97.699219 108.5625 97.726562 108.898438 97.660156 " fill-opacity="1" fill-rule="nonzero"/><path fill="#ffc14d" d="M 104.328125 99.648438 C 103.203125 99.699219 102.847656 99.386719 103.464844 97.710938 C 103.6875 97.832031 103.925781 97.914062 104.113281 97.871094 C 104.316406 97.828125 104.523438 97.757812 104.707031 97.6875 C 104.710938 98.464844 104.867188 99.625 104.328125 99.648438 " fill-opacity="1" fill-rule="nonzero"/><path fill="#ee9775" d="M 108.289062 53.269531 C 111.507812 53.925781 113.882812 59.222656 114.953125 58.425781 C 116.027344 57.625 118.851562 54.535156 118.851562 54.535156 L 119.621094 55.078125 C 119.621094 55.078125 118.410156 63.257812 114.777344 63.8125 C 111.144531 64.367188 109.183594 61.128906 108.03125 59.621094 C 106.066406 57.046875 105.839844 52.773438 108.289062 53.269531 " fill-opacity="1" fill-rule="nonzero"/><path fill="#ee9775" d="M 118.828125 54.394531 C 118.828125 54.394531 119.207031 52.945312 119.4375 52.867188 C 119.667969 52.792969 119.378906 53.445312 119.527344 53.46875 C 119.675781 53.492188 120.8125 52.519531 120.921875 52.679688 C 121.03125 52.839844 120.179688 53.324219 120.277344 53.460938 C 120.339844 53.542969 121.265625 52.890625 121.359375 53.042969 C 121.453125 53.191406 120.460938 53.675781 120.476562 53.777344 C 120.5 53.925781 121.359375 53.480469 121.40625 53.648438 C 121.453125 53.816406 120.535156 54.058594 120.570312 54.195312 C 120.59375 54.285156 121.234375 54.058594 121.25 54.210938 C 121.261719 54.351562 119.691406 54.953125 119.320312 54.980469 C 119.074219 54.996094 119.148438 55.164062 118.941406 54.945312 C 118.734375 54.730469 118.828125 54.394531 118.828125 54.394531 " fill-opacity="1" fill-rule="nonzero"/><path fill="#abd0d9" d="M 113.453125 63.847656 C 113.566406 63.859375 113.683594 63.867188 113.800781 63.871094 C 114.113281 63.882812 114.4375 63.863281 114.777344 63.8125 C 114.824219 63.804688 114.867188 63.796875 114.910156 63.789062 C 115.3125 63.699219 115.722656 63.492188 116.128906 63.199219 C 117.988281 61.75 118.976562 58.195312 119.386719 56.304688 C 119.125 56.308594 118.824219 56.253906 118.550781 56.050781 C 118.324219 55.882812 118.160156 55.644531 118.042969 55.40625 C 117.121094 56.382812 115.660156 57.898438 114.953125 58.425781 C 114.765625 58.566406 114.535156 58.515625 114.265625 58.335938 C 114.230469 58.3125 114.195312 58.285156 114.160156 58.261719 C 114.03125 58.160156 113.894531 58.035156 113.75 57.890625 C 113.636719 57.777344 113.519531 57.648438 113.394531 57.511719 C 113.3125 57.421875 113.226562 57.324219 113.140625 57.222656 C 113.070312 57.140625 112.996094 57.054688 112.921875 56.96875 C 112.832031 56.867188 112.742188 56.757812 112.648438 56.652344 C 112.609375 56.605469 112.570312 56.558594 112.53125 56.515625 C 112.496094 56.472656 112.460938 56.433594 112.425781 56.390625 C 112.214844 56.148438 111.992188 55.894531 111.761719 55.648438 C 111.722656 55.605469 111.6875 55.566406 111.644531 55.523438 C 110.675781 54.492188 109.546875 53.527344 108.289062 53.269531 C 108.171875 53.246094 108.0625 53.234375 107.960938 53.230469 C 107.886719 53.230469 107.816406 53.234375 107.75 53.242188 C 107.695312 53.246094 107.648438 53.253906 107.597656 53.265625 C 107.582031 53.273438 107.5625 53.277344 107.542969 53.28125 C 107.515625 53.289062 107.488281 53.300781 107.460938 53.308594 C 107.421875 53.324219 107.378906 53.339844 107.34375 53.359375 C 107.339844 53.359375 107.335938 53.359375 107.332031 53.363281 C 106.796875 53.636719 106.53125 54.316406 106.507812 55.171875 C 106.503906 55.210938 106.503906 55.253906 106.503906 55.292969 C 106.503906 55.503906 106.515625 55.71875 106.542969 55.941406 C 106.550781 56.03125 106.566406 56.121094 106.578125 56.210938 C 106.703125 56.984375 106.976562 57.820312 107.375 58.589844 C 107.519531 58.859375 107.679688 59.125 107.851562 59.375 C 107.910156 59.457031 107.96875 59.539062 108.03125 59.621094 C 108.140625 59.761719 108.253906 59.917969 108.378906 60.085938 C 108.457031 60.199219 108.542969 60.3125 108.632812 60.433594 C 108.992188 60.914062 109.40625 61.445312 109.894531 61.945312 C 110.078125 62.132812 110.269531 62.316406 110.472656 62.488281 C 110.542969 62.546875 110.613281 62.605469 110.683594 62.660156 C 111.105469 62.996094 111.570312 63.289062 112.089844 63.503906 C 112.175781 63.539062 112.265625 63.574219 112.351562 63.601562 C 112.460938 63.640625 112.570312 63.671875 112.679688 63.703125 C 112.929688 63.769531 113.1875 63.820312 113.453125 63.847656 " fill-opacity="1" fill-rule="nonzero"/><path fill="#63aaba" d="M 108.832031 53.703125 C 108.355469 53.507812 108.050781 53.359375 107.46875 53.304688 C 107.464844 53.308594 107.464844 53.308594 107.460938 53.308594 C 107.421875 53.324219 107.378906 53.339844 107.34375 53.359375 C 107.339844 53.359375 107.335938 53.359375 107.332031 53.363281 C 106.796875 53.636719 106.53125 54.316406 106.507812 55.171875 C 106.503906 55.210938 106.503906 55.253906 106.503906 55.292969 C 106.503906 55.503906 106.515625 55.71875 106.542969 55.941406 C 106.550781 56.03125 106.566406 56.121094 106.578125 56.210938 C 106.703125 56.984375 106.976562 57.820312 107.375 58.589844 C 107.519531 58.859375 107.679688 59.125 107.851562 59.375 C 107.910156 59.457031 107.96875 59.539062 108.03125 59.621094 C 108.140625 59.761719 108.253906 59.917969 108.378906 60.085938 C 108.457031 60.199219 108.542969 60.3125 108.632812 60.433594 C 108.992188 60.914062 109.40625 61.445312 109.894531 61.945312 C 110.078125 62.132812 110.269531 62.316406 110.472656 62.488281 C 110.542969 62.546875 110.613281 62.605469 110.683594 62.660156 C 110.957031 62.875 111.246094 63.078125 111.558594 63.246094 C 111.507812 62.664062 111.460938 62.09375 111.421875 61.558594 C 111.347656 60.488281 112.035156 60.152344 112.15625 59.007812 C 112.359375 57.085938 109.6875 54.054688 108.832031 53.703125 " fill-opacity="1" fill-rule="nonzero"/><path fill="#abd0d9" d="M 105.15625 52.992188 C 105.15625 52.992188 102.0625 52.855469 100.46875 53.269531 C 98.523438 53.777344 100.265625 57.074219 100.0625 61.300781 C 99.855469 65.570312 99.394531 69.75 99.394531 69.75 C 99.394531 69.75 100.605469 69.1875 104.394531 69.113281 C 107.882812 69.046875 111.539062 69.894531 111.539062 69.894531 C 111.539062 69.894531 110.894531 64.820312 110.648438 61.296875 C 110.574219 60.230469 111.261719 59.890625 111.382812 58.746094 C 111.585938 56.824219 109.242188 53.75 108.386719 53.398438 C 107.234375 52.921875 105.15625 52.992188 105.15625 52.992188 " fill-opacity="1" fill-rule="nonzero"/><path fill="#63aaba" d="M 100.070312 60.046875 C 101.4375 59.679688 102.636719 57.417969 102.421875 55.8125 C 102.230469 54.414062 102.027344 53.722656 100.542969 53.683594 C 100.308594 53.675781 100.0625 53.683594 99.804688 53.707031 C 99.210938 54.558594 99.714844 60.140625 100.070312 60.046875 " fill-opacity="1" fill-rule="nonzero"/><path fill="#fdb2d0" d="M 101.03125 58.082031 C 100.429688 58.277344 99.9375 58.316406 99.9375 58.316406 C 99.9375 58.316406 99.941406 58.316406 99.945312 58.320312 L 99.996094 58.34375 C 99.996094 58.34375 100 58.34375 100 58.34375 L 101.371094 58.964844 L 101.21875 59.96875 C 101.21875 59.96875 92.824219 61.058594 91.589844 59.25 C 89.613281 56.363281 96.867188 52.828125 100.863281 53.183594 C 102.34375 53.316406 103.039062 54.03125 103.140625 55.441406 C 103.257812 57.054688 102.003906 57.769531 101.03125 58.082031 " fill-opacity="1" fill-rule="nonzero"/><path fill="#d9413f" d="M 108.015625 46.042969 C 106.332031 44.839844 103.140625 44.480469 100.863281 47.019531 C 98.683594 49.449219 99.253906 51.550781 101.078125 52.488281 C 102.0625 52.992188 105.46875 52.421875 105.46875 52.421875 C 105.46875 52.421875 108.484375 52.457031 109.359375 51.71875 C 111.398438 49.988281 109.617188 47.179688 108.015625 46.042969 " fill-opacity="1" fill-rule="nonzero"/><path fill="#a63230" d="M 110.132812 48.90625 C 110.007812 49.523438 109.980469 49.683594 109.460938 49.878906 C 108.15625 50.371094 107.035156 47.949219 107.035156 47.949219 L 102.703125 49.199219 C 102.703125 49.199219 102.804688 50.925781 101.460938 51.019531 C 100.035156 51.121094 99.761719 49.769531 99.523438 49.410156 C 99.234375 50.777344 99.890625 51.878906 101.078125 52.488281 C 102.0625 52.992188 105.46875 52.421875 105.46875 52.421875 C 105.46875 52.421875 108.484375 52.457031 109.359375 51.71875 C 110.300781 50.917969 110.425781 49.890625 110.132812 48.90625 " fill-opacity="1" fill-rule="nonzero"/><path fill="#ee9775" d="M 103.144531 52.980469 C 104.539062 52.976562 104.117188 50.945312 104.117188 50.945312 L 106.085938 51 C 106.085938 51 105.25 52.460938 106.523438 53.03125 C 106.523438 53.03125 107.34375 54.667969 105.796875 54.847656 C 104.023438 55.050781 103.019531 52.980469 103.144531 52.980469 " fill-opacity="1" fill-rule="nonzero"/><path fill="#d47653" d="M 104.058594 52.351562 C 104.289062 52.429688 104.539062 52.480469 104.796875 52.488281 C 105.171875 52.5 105.53125 52.429688 105.855469 52.296875 C 105.695312 51.683594 106.085938 51 106.085938 51 L 104.117188 50.945312 C 104.117188 50.945312 104.285156 51.753906 104.058594 52.351562 " fill-opacity="1" fill-rule="nonzero"/><path fill="#ee9775" d="M 107.347656 49.960938 C 107.300781 51.25 106.152344 52.261719 104.78125 52.214844 C 103.414062 52.171875 102.339844 51.089844 102.386719 49.800781 C 102.433594 48.507812 103.582031 47.5 104.953125 47.542969 C 106.324219 47.589844 107.394531 48.671875 107.347656 49.960938 " fill-opacity="1" fill-rule="nonzero"/><path fill="#ee9775" d="M 107.558594 49.160156 C 107.414062 49.449219 107.058594 49.5625 106.769531 49.417969 C 106.480469 49.269531 106.363281 48.914062 106.511719 48.628906 C 106.660156 48.339844 107.015625 48.226562 107.304688 48.371094 C 107.59375 48.519531 107.707031 48.871094 107.558594 49.160156 " fill-opacity="1" fill-rule="nonzero"/><path fill="#d9413f" d="M 107.035156 47.949219 C 106.863281 48.332031 106.808594 48.722656 104.867188 49.484375 C 102.925781 50.246094 102.507812 50.550781 101.925781 50.265625 C 100.890625 49.753906 101.71875 47.765625 103.40625 47.042969 C 105.09375 46.324219 107.207031 47.558594 107.035156 47.949219 " fill-opacity="1" fill-rule="nonzero"/><path fill="#a63230" d="M 105.039062 49.105469 C 103.101562 49.867188 102.675781 50.171875 102.097656 49.886719 C 101.625 49.652344 101.542969 49.109375 101.753906 48.519531 C 101.351562 49.242188 101.351562 49.980469 101.925781 50.265625 C 102.507812 50.550781 102.925781 50.246094 104.867188 49.484375 C 106.808594 48.722656 106.863281 48.332031 107.035156 47.949219 C 107.042969 47.933594 107.042969 47.921875 107.046875 47.90625 C 106.855469 48.203125 106.433594 48.558594 105.039062 49.105469 " fill-opacity="1" fill-rule="nonzero"/><path fill="#abd0d9" d="M 100.378906 60.0625 C 100.429688 58.945312 100.988281 58.789062 100.988281 58.789062 L 100 58.34375 C 100 58.34375 99.996094 58.34375 99.996094 58.34375 L 99.945312 58.320312 C 99.941406 58.316406 99.9375 58.316406 99.9375 58.316406 C 99.9375 58.316406 100.429688 58.351562 101.050781 58.226562 C 102.4375 57.949219 103.515625 56.863281 103.398438 55.25 C 103.296875 53.84375 102.511719 53.285156 101.03125 53.152344 C 97.035156 52.796875 89.613281 56.363281 91.589844 59.25 C 92.585938 60.707031 98.226562 60.285156 100.378906 60.0625 " fill-opacity="1" fill-rule="nonzero"/><path fill="#63aaba" d="M 101.078125 58.277344 C 100.476562 58.46875 99.9375 58.316406 99.9375 58.316406 C 99.9375 58.316406 97.269531 57.304688 94.71875 56.769531 C 93.964844 56.609375 95.75 56.445312 98.261719 56.949219 C 99.609375 57.21875 100.40625 57.84375 101.078125 58.277344 " fill-opacity="1" fill-rule="nonzero"/><path fill="#ee9775" d="M 101.359375 58.753906 C 101.359375 58.753906 103.210938 58.796875 103.765625 59.78125 C 104.058594 60.304688 103.589844 59.984375 102.761719 59.75 C 102.222656 59.597656 102.03125 59.644531 101.917969 59.757812 C 101.816406 59.859375 102.042969 60.011719 102.1875 60.316406 C 102.421875 60.808594 101.390625 60.042969 101.136719 59.714844 C 100.886719 59.390625 100.941406 58.691406 101.359375 58.753906 " fill-opacity="1" fill-rule="nonzero"/><path fill="#fde3b9" d="M 104.644531 59.488281 L 104.644531 59.632812 L 104.636719 59.632812 C 104.46875 59.628906 104.339844 59.683594 104.265625 59.792969 C 104.257812 59.800781 104.25 59.8125 104.246094 59.820312 C 104.226562 59.859375 104.199219 59.890625 104.171875 59.921875 L 98.972656 59.921875 L 98.972656 59.867188 L 98.980469 58.925781 C 98.984375 58.78125 99.074219 58.652344 99.210938 58.605469 C 99.613281 58.464844 100.527344 58.199219 101.726562 58.199219 C 103.902344 58.199219 104.503906 59.1875 104.617188 59.433594 C 104.636719 59.46875 104.644531 59.488281 104.644531 59.488281 " fill-opacity="1" fill-rule="nonzero"/><path fill="#fde3b9" d="M 110.292969 59.921875 L 105.109375 59.921875 C 105.085938 59.894531 105.0625 59.863281 105.039062 59.832031 C 105.03125 59.816406 105.023438 59.804688 105.015625 59.792969 C 104.9375 59.691406 104.8125 59.640625 104.644531 59.632812 L 104.636719 59.632812 C 104.632812 59.632812 104.628906 59.632812 104.621094 59.632812 L 104.621094 59.488281 C 104.621094 59.488281 104.628906 59.46875 104.644531 59.433594 C 104.761719 59.1875 105.367188 58.199219 107.539062 58.199219 C 108.742188 58.199219 109.652344 58.464844 110.054688 58.605469 C 110.191406 58.652344 110.28125 58.78125 110.285156 58.925781 L 110.292969 59.867188 L 110.292969 59.921875 " fill-opacity="1" fill-rule="nonzero"/><path fill="#c9b593" d="M 104.34375 59.480469 C 104.335938 59.480469 104.328125 59.476562 104.320312 59.46875 C 104.316406 59.460938 103.746094 58.722656 102.351562 58.574219 C 100.964844 58.429688 99.484375 58.84375 99.46875 58.847656 C 99.457031 58.851562 99.441406 58.84375 99.4375 58.828125 C 99.433594 58.816406 99.441406 58.800781 99.457031 58.796875 C 99.46875 58.789062 100.960938 58.375 102.355469 58.523438 C 103.777344 58.671875 104.359375 59.429688 104.363281 59.4375 C 104.371094 59.449219 104.371094 59.464844 104.359375 59.472656 C 104.351562 59.476562 104.347656 59.480469 104.34375 59.480469 " fill-opacity="1" fill-rule="nonzero"/><path fill="#c9b593" d="M 103.316406 59.527344 C 103.3125 59.527344 103.308594 59.527344 103.308594 59.527344 C 103.296875 59.523438 102.179688 59.171875 98.980469 59.515625 C 98.964844 59.515625 98.953125 59.503906 98.953125 59.492188 C 98.949219 59.476562 98.960938 59.460938 98.976562 59.460938 C 102.191406 59.117188 103.3125 59.472656 103.324219 59.476562 C 103.339844 59.480469 103.347656 59.496094 103.34375 59.511719 C 103.339844 59.519531 103.328125 59.527344 103.316406 59.527344 " fill-opacity="1" fill-rule="nonzero"/><path fill="#c9b593" d="M 99.464844 59.6875 C 99.449219 59.6875 99.4375 59.675781 99.4375 59.660156 C 99.433594 59.644531 99.445312 59.632812 99.460938 59.632812 C 99.476562 59.632812 101.105469 59.507812 102.144531 59.617188 C 102.160156 59.617188 102.171875 59.632812 102.167969 59.644531 C 102.167969 59.660156 102.152344 59.671875 102.140625 59.667969 C 101.105469 59.5625 99.480469 59.683594 99.464844 59.6875 " fill-opacity="1" fill-rule="nonzero"/><path fill="#c9b593" d="M 103.917969 59.460938 C 103.914062 59.460938 103.910156 59.457031 103.902344 59.453125 C 103.894531 59.449219 102.824219 58.761719 101.265625 58.894531 C 101.25 58.898438 101.238281 58.886719 101.234375 58.871094 C 101.234375 58.859375 101.246094 58.84375 101.261719 58.84375 C 102.839844 58.703125 103.921875 59.402344 103.933594 59.410156 C 103.945312 59.417969 103.949219 59.433594 103.941406 59.445312 C 103.9375 59.457031 103.925781 59.460938 103.917969 59.460938 " fill-opacity="1" fill-rule="nonzero"/><path fill="#c9b593" d="M 110.195312 58.941406 C 110.191406 58.941406 110.1875 58.941406 110.183594 58.941406 C 110.171875 58.933594 108.828125 58.335938 107.324219 58.4375 C 106.210938 58.511719 105.914062 58.714844 105.625 58.914062 C 105.613281 58.921875 105.59375 58.917969 105.585938 58.90625 C 105.578125 58.894531 105.582031 58.878906 105.59375 58.871094 C 105.886719 58.667969 106.191406 58.457031 107.320312 58.382812 C 108.839844 58.285156 110.191406 58.882812 110.207031 58.890625 C 110.21875 58.898438 110.226562 58.914062 110.21875 58.925781 C 110.214844 58.9375 110.207031 58.941406 110.195312 58.941406 " fill-opacity="1" fill-rule="nonzero"/><path fill="#c9b593" d="M 105.703125 59.707031 C 105.691406 59.707031 105.679688 59.699219 105.675781 59.6875 C 105.671875 59.671875 105.679688 59.65625 105.695312 59.652344 C 105.699219 59.652344 106.335938 59.441406 106.929688 59.40625 C 108.066406 59.332031 109.164062 59.5 109.753906 59.589844 C 109.925781 59.617188 110.050781 59.636719 110.121094 59.640625 C 110.132812 59.644531 110.144531 59.65625 110.144531 59.667969 C 110.144531 59.683594 110.132812 59.695312 110.117188 59.695312 C 110.046875 59.691406 109.921875 59.671875 109.746094 59.644531 C 109.160156 59.554688 108.066406 59.386719 106.933594 59.460938 C 106.34375 59.496094 105.71875 59.703125 105.710938 59.703125 C 105.710938 59.703125 105.707031 59.707031 105.703125 59.707031 " fill-opacity="1" fill-rule="nonzero"/><path fill="#c9b593" d="M 109.800781 59.359375 C 109.800781 59.359375 109.796875 59.359375 109.796875 59.359375 C 109.734375 59.347656 109.664062 59.328125 109.585938 59.3125 C 109 59.171875 107.90625 58.914062 106.699219 59.167969 C 106.683594 59.171875 106.667969 59.164062 106.664062 59.148438 C 106.660156 59.132812 106.671875 59.117188 106.6875 59.117188 C 107.90625 58.859375 109.007812 59.117188 109.601562 59.257812 C 109.679688 59.277344 109.746094 59.292969 109.804688 59.304688 C 109.820312 59.308594 109.832031 59.324219 109.828125 59.339844 C 109.824219 59.351562 109.8125 59.359375 109.800781 59.359375 " fill-opacity="1" fill-rule="nonzero"/><path fill="#c9b593" d="M 105.078125 59.574219 C 105.070312 59.574219 105.0625 59.570312 105.058594 59.566406 C 105.046875 59.554688 105.046875 59.539062 105.054688 59.527344 C 105.0625 59.523438 105.613281 58.960938 106.347656 58.789062 C 107.765625 58.457031 108.71875 58.714844 109.289062 58.867188 L 109.363281 58.890625 C 109.378906 58.894531 109.386719 58.910156 109.382812 58.921875 C 109.378906 58.9375 109.363281 58.945312 109.351562 58.941406 L 109.273438 58.921875 C 108.710938 58.769531 107.765625 58.511719 106.363281 58.839844 C 105.640625 59.011719 105.101562 59.558594 105.097656 59.566406 C 105.089844 59.570312 105.082031 59.574219 105.078125 59.574219 " fill-opacity="1" fill-rule="nonzero"/><path fill="#7b6594" d="M 110.3125 59.957031 L 105.148438 59.957031 C 105.136719 59.945312 105.121094 59.933594 105.109375 59.921875 C 105.085938 59.894531 105.0625 59.863281 105.039062 59.832031 C 105.03125 59.816406 105.023438 59.804688 105.015625 59.792969 C 104.9375 59.691406 104.8125 59.640625 104.644531 59.632812 L 104.644531 59.523438 C 104.644531 59.523438 104.644531 59.503906 104.660156 59.46875 C 104.664062 59.460938 104.667969 59.449219 104.671875 59.433594 C 104.679688 59.40625 104.691406 59.371094 104.703125 59.332031 C 105.070312 59.359375 105.25 59.5625 105.324219 59.6875 C 105.351562 59.734375 105.402344 59.765625 105.453125 59.765625 L 110.3125 59.765625 L 110.3125 59.957031 " fill-opacity="1" fill-rule="nonzero"/><path fill="#7b6594" d="M 104.644531 59.523438 L 104.644531 59.632812 L 104.636719 59.632812 C 104.632812 59.632812 104.628906 59.632812 104.621094 59.632812 C 104.460938 59.632812 104.339844 59.6875 104.265625 59.792969 C 104.257812 59.800781 104.25 59.8125 104.246094 59.820312 C 104.226562 59.859375 104.199219 59.890625 104.171875 59.921875 C 104.15625 59.933594 104.144531 59.945312 104.132812 59.957031 L 98.972656 59.957031 L 98.972656 59.902344 L 98.976562 59.867188 L 98.976562 59.765625 L 103.828125 59.765625 C 103.882812 59.765625 103.929688 59.734375 103.960938 59.6875 C 104.03125 59.5625 104.199219 59.359375 104.542969 59.332031 C 104.566406 59.371094 104.585938 59.40625 104.601562 59.433594 C 104.609375 59.445312 104.613281 59.457031 104.617188 59.46875 C 104.636719 59.503906 104.644531 59.523438 104.644531 59.523438 " fill-opacity="1" fill-rule="nonzero"/><path fill="#625075" d="M 110.632812 59.988281 C 110.632812 60.042969 110.585938 60.085938 110.53125 60.085938 L 105.453125 60.085938 C 105.339844 60.085938 105.234375 60.046875 105.148438 59.976562 C 105.136719 59.964844 105.121094 59.953125 105.109375 59.941406 C 105.085938 59.914062 105.0625 59.882812 105.039062 59.851562 C 105.03125 59.835938 105.023438 59.824219 105.015625 59.8125 C 104.9375 59.710938 104.8125 59.660156 104.644531 59.652344 L 104.636719 59.652344 C 104.632812 59.652344 104.628906 59.652344 104.621094 59.652344 C 104.460938 59.652344 104.339844 59.707031 104.265625 59.8125 C 104.257812 59.824219 104.25 59.832031 104.246094 59.84375 C 104.226562 59.878906 104.199219 59.914062 104.171875 59.941406 C 104.15625 59.953125 104.144531 59.964844 104.132812 59.976562 C 104.046875 60.046875 103.941406 60.085938 103.828125 60.085938 L 98.792969 60.085938 C 98.738281 60.085938 98.691406 60.042969 98.691406 59.988281 C 98.691406 59.929688 98.738281 59.886719 98.792969 59.886719 L 103.828125 59.886719 C 103.882812 59.886719 103.929688 59.855469 103.960938 59.808594 C 104.035156 59.675781 104.214844 59.460938 104.601562 59.453125 L 104.617188 59.453125 C 104.628906 59.453125 104.636719 59.453125 104.644531 59.453125 C 104.652344 59.453125 104.65625 59.453125 104.660156 59.453125 C 104.664062 59.453125 104.667969 59.453125 104.671875 59.453125 C 105.0625 59.472656 105.246094 59.683594 105.324219 59.808594 C 105.351562 59.859375 105.402344 59.886719 105.453125 59.886719 L 110.53125 59.886719 C 110.585938 59.886719 110.632812 59.933594 110.632812 59.988281 " fill-opacity="1" fill-rule="nonzero"/><path fill="#bab8b9" d="M 99.945312 58.128906 L 99.996094 58.148438 C 99.972656 58.140625 99.957031 58.132812 99.945312 58.128906 " fill-opacity="1" fill-rule="nonzero"/><path fill="#ffc14d" d="M 121.542969 95.863281 L 121.542969 97.378906 C 121.542969 98.132812 121.410156 98.855469 121.164062 99.519531 C 120.289062 101.902344 118 103.601562 115.308594 103.601562 L 52.796875 103.601562 C 49.355469 103.601562 46.5625 100.816406 46.5625 97.378906 L 46.5625 95.863281 C 46.5625 92.425781 49.355469 89.644531 52.796875 89.644531 L 115.308594 89.644531 C 118 89.644531 120.289062 91.339844 121.164062 93.722656 C 121.410156 94.386719 121.542969 95.109375 121.542969 95.863281 " fill-opacity="1" fill-rule="nonzero"/><path fill="#fde3b9" d="M 35.644531 96.621094 C 35.644531 93.960938 33.832031 91.730469 31.402344 91.160156 C 31.796875 91.066406 32.210938 91.015625 32.632812 91.015625 L 76.304688 91.015625 C 79.328125 91.015625 81.777344 93.523438 81.777344 96.621094 C 81.777344 99.71875 79.328125 102.226562 76.304688 102.226562 L 32.632812 102.226562 C 32.210938 102.226562 31.796875 102.175781 31.402344 102.082031 C 33.832031 101.511719 35.644531 99.285156 35.644531 96.621094 " fill-opacity="1" fill-rule="nonzero"/><path fill="#c9b593" d="M 81.777344 96.640625 C 81.292969 93.828125 79.164062 91.589844 76.449219 91.019531 C 76.402344 91.015625 76.355469 91.015625 76.304688 91.015625 L 32.632812 91.015625 C 32.210938 91.015625 31.796875 91.066406 31.402344 91.160156 C 32.824219 91.492188 34.03125 92.398438 34.792969 93.621094 L 75.074219 93.621094 C 77.351562 93.621094 79.207031 95.519531 79.207031 97.855469 C 79.207031 100.1875 77.351562 102.089844 75.074219 102.089844 L 31.425781 102.089844 C 31.8125 102.175781 32.21875 102.226562 32.632812 102.226562 L 76.304688 102.226562 C 79.324219 102.226562 81.769531 99.726562 81.777344 96.640625 " fill-opacity="1" fill-rule="nonzero"/><path fill="#c9b593" d="M 67.183594 94.324219 L 39.105469 94.324219 C 39.078125 94.324219 39.050781 94.300781 39.050781 94.273438 C 39.050781 94.242188 39.078125 94.21875 39.105469 94.21875 L 67.183594 94.21875 C 67.214844 94.21875 67.238281 94.242188 67.238281 94.273438 C 67.238281 94.300781 67.214844 94.324219 67.183594 94.324219 " fill-opacity="1" fill-rule="nonzero"/><path fill="#c9b593" d="M 75.46875 95.652344 L 36.480469 95.652344 C 36.449219 95.652344 36.425781 95.628906 36.425781 95.597656 C 36.425781 95.570312 36.449219 95.546875 36.480469 95.546875 L 75.46875 95.546875 C 75.5 95.546875 75.523438 95.570312 75.523438 95.597656 C 75.523438 95.628906 75.5 95.652344 75.46875 95.652344 " fill-opacity="1" fill-rule="nonzero"/><path fill="#c9b593" d="M 56.347656 96.675781 L 35.632812 96.675781 C 35.601562 96.675781 35.578125 96.652344 35.578125 96.621094 C 35.578125 96.589844 35.601562 96.566406 35.632812 96.566406 L 56.347656 96.566406 C 56.375 96.566406 56.398438 96.589844 56.398438 96.621094 C 56.398438 96.652344 56.375 96.675781 56.347656 96.675781 " fill-opacity="1" fill-rule="nonzero"/><path fill="#c9b593" d="M 71.65625 98.054688 L 44.25 98.054688 C 44.21875 98.054688 44.195312 98.027344 44.195312 98 C 44.195312 97.96875 44.21875 97.945312 44.25 97.945312 L 71.65625 97.945312 C 71.6875 97.945312 71.710938 97.96875 71.710938 98 C 71.710938 98.027344 71.6875 98.054688 71.65625 98.054688 " fill-opacity="1" fill-rule="nonzero"/><path fill="#c9b593" d="M 68.921875 99.046875 L 38.257812 99.046875 C 38.226562 99.046875 38.203125 99.023438 38.203125 98.992188 C 38.203125 98.960938 38.226562 98.9375 38.257812 98.9375 L 68.921875 98.9375 C 68.953125 98.9375 68.976562 98.960938 68.976562 98.992188 C 68.976562 99.023438 68.953125 99.046875 68.921875 99.046875 " fill-opacity="1" fill-rule="nonzero"/><path fill="#c9b593" d="M 74.9375 100.125 L 35.40625 100.125 C 35.378906 100.125 35.351562 100.101562 35.351562 100.070312 C 35.351562 100.039062 35.378906 100.015625 35.40625 100.015625 L 74.9375 100.015625 C 74.96875 100.015625 74.992188 100.039062 74.992188 100.070312 C 74.992188 100.101562 74.96875 100.125 74.9375 100.125 " fill-opacity="1" fill-rule="nonzero"/><path fill="#ffcd70" d="M 32.632812 103.601562 L 76.304688 103.601562 C 80.0625 103.601562 83.117188 100.46875 83.117188 96.621094 C 83.117188 92.773438 80.0625 89.644531 76.304688 89.644531 L 32.632812 89.644531 C 31.894531 89.644531 31.292969 90.257812 31.292969 91.015625 C 31.292969 91.773438 31.894531 92.386719 32.632812 92.386719 L 76.304688 92.386719 C 78.585938 92.386719 80.4375 94.285156 80.4375 96.621094 C 80.4375 98.957031 78.585938 100.855469 76.304688 100.855469 L 32.632812 100.855469 C 31.894531 100.855469 31.292969 101.46875 31.292969 102.226562 C 31.292969 102.984375 31.894531 103.601562 32.632812 103.601562 " fill-opacity="1" fill-rule="nonzero"/><path fill="#c7922f" d="M 121.542969 95.863281 L 121.542969 97.378906 C 121.542969 98.132812 121.410156 98.855469 121.164062 99.519531 L 93.472656 99.519531 C 93.71875 98.855469 93.855469 98.132812 93.855469 97.378906 L 93.855469 95.863281 C 93.855469 95.109375 93.71875 94.386719 93.472656 93.722656 L 121.164062 93.722656 C 121.410156 94.386719 121.542969 95.109375 121.542969 95.863281 " fill-opacity="1" fill-rule="nonzero"/><path fill="#bf4124" d="M 104.671875 89.644531 L 49.023438 89.644531 C 46.101562 89.644531 43.730469 87.277344 43.730469 84.359375 C 43.730469 81.445312 46.101562 79.078125 49.023438 79.078125 L 104.671875 79.078125 C 107.597656 79.078125 109.964844 81.445312 109.964844 84.359375 C 109.964844 87.277344 107.597656 89.644531 104.671875 89.644531 " fill-opacity="1" fill-rule="nonzero"/><path fill="#e6684c" d="M 50.265625 84.375 L 50.265625 84.347656 C 50.265625 81.4375 52.628906 79.078125 55.546875 79.078125 L 52.4375 79.078125 C 49.523438 79.078125 47.15625 81.4375 47.15625 84.347656 L 47.15625 84.375 C 47.15625 87.285156 49.523438 89.644531 52.4375 89.644531 L 55.546875 89.644531 C 52.628906 89.644531 50.265625 87.285156 50.265625 84.375 " fill-opacity="1" fill-rule="nonzero"/><path fill="#e6684c" d="M 75.46875 84.375 L 75.46875 84.347656 C 75.46875 81.4375 77.832031 79.078125 80.746094 79.078125 L 77.640625 79.078125 C 74.722656 79.078125 72.359375 81.4375 72.359375 84.347656 L 72.359375 84.375 C 72.359375 87.285156 74.722656 89.644531 77.640625 89.644531 L 80.746094 89.644531 C 77.832031 89.644531 75.46875 87.285156 75.46875 84.375 " fill-opacity="1" fill-rule="nonzero"/><path fill="#fde3b9" d="M 113.820312 84.359375 C 113.820312 82.347656 115.542969 80.660156 117.859375 80.226562 C 117.480469 80.15625 117.089844 80.117188 116.6875 80.117188 L 85.492188 80.117188 C 82.609375 80.117188 80.277344 82.019531 80.277344 84.359375 C 80.277344 86.703125 82.609375 88.605469 85.492188 88.605469 L 116.6875 88.605469 C 117.089844 88.605469 117.480469 88.566406 117.859375 88.496094 C 115.542969 88.0625 113.820312 86.375 113.820312 84.359375 " fill-opacity="1" fill-rule="nonzero"/><path fill="#c9b593" d="M 116.6875 88.605469 C 117.089844 88.605469 117.480469 88.566406 117.859375 88.496094 C 117.707031 88.46875 117.5625 88.433594 117.414062 88.394531 L 86.5625 88.394531 C 84.390625 88.394531 82.625 86.957031 82.625 85.191406 C 82.625 83.425781 84.390625 81.984375 86.5625 81.984375 L 114.710938 81.984375 C 115.4375 81.113281 116.554688 80.472656 117.859375 80.226562 C 117.480469 80.15625 117.089844 80.117188 116.6875 80.117188 L 85.492188 80.117188 C 85.113281 80.117188 84.746094 80.152344 84.394531 80.210938 C 82.453125 80.773438 80.933594 82.066406 80.34375 83.683594 C 80.300781 83.902344 80.277344 84.128906 80.277344 84.359375 C 80.277344 86.703125 82.609375 88.605469 85.492188 88.605469 L 116.6875 88.605469 " fill-opacity="1" fill-rule="nonzero"/><path fill="#c9b593" d="M 114.199219 82.824219 L 87.308594 82.824219 C 87.277344 82.824219 87.253906 82.800781 87.253906 82.769531 C 87.253906 82.742188 87.277344 82.714844 87.308594 82.714844 L 114.199219 82.714844 C 114.226562 82.714844 114.253906 82.742188 114.253906 82.769531 C 114.253906 82.800781 114.226562 82.824219 114.199219 82.824219 " fill-opacity="1" fill-rule="nonzero"/><path fill="#c9b593" d="M 110.949219 83.816406 L 89.921875 83.816406 C 89.890625 83.816406 89.867188 83.792969 89.867188 83.761719 C 89.867188 83.730469 89.890625 83.707031 89.921875 83.707031 L 110.949219 83.707031 C 110.976562 83.707031 111.003906 83.730469 111.003906 83.761719 C 111.003906 83.792969 110.976562 83.816406 110.949219 83.816406 " fill-opacity="1" fill-rule="nonzero"/><path fill="#c9b593" d="M 114.449219 86.425781 L 85.976562 86.425781 C 85.945312 86.425781 85.921875 86.402344 85.921875 86.371094 C 85.921875 86.34375 85.945312 86.316406 85.976562 86.316406 L 114.449219 86.316406 C 114.480469 86.316406 114.503906 86.34375 114.503906 86.371094 C 114.503906 86.402344 114.480469 86.425781 114.449219 86.425781 " fill-opacity="1" fill-rule="nonzero"/><path fill="#c9b593" d="M 113.203125 85.398438 L 95.519531 85.398438 C 95.492188 85.398438 95.46875 85.375 95.46875 85.34375 C 95.46875 85.316406 95.492188 85.289062 95.519531 85.289062 L 113.203125 85.289062 C 113.234375 85.289062 113.257812 85.316406 113.257812 85.34375 C 113.257812 85.375 113.234375 85.398438 113.203125 85.398438 " fill-opacity="1" fill-rule="nonzero"/><path fill="#c9b593" d="M 105.914062 84.421875 L 84.132812 84.421875 C 84.101562 84.421875 84.078125 84.394531 84.078125 84.367188 C 84.078125 84.335938 84.101562 84.3125 84.132812 84.3125 L 105.914062 84.3125 C 105.945312 84.3125 105.96875 84.335938 105.96875 84.367188 C 105.96875 84.394531 105.945312 84.421875 105.914062 84.421875 " fill-opacity="1" fill-rule="nonzero"/><path fill="#e6684c" d="M 116.6875 89.644531 L 85.492188 89.644531 C 81.910156 89.644531 79 87.273438 79 84.359375 C 79 81.449219 81.910156 79.078125 85.492188 79.078125 L 116.6875 79.078125 C 117.390625 79.078125 117.964844 79.546875 117.964844 80.117188 C 117.964844 80.691406 117.390625 81.15625 116.6875 81.15625 L 85.492188 81.15625 C 83.320312 81.15625 81.550781 82.59375 81.550781 84.359375 C 81.550781 86.128906 83.320312 87.566406 85.492188 87.566406 L 116.6875 87.566406 C 117.390625 87.566406 117.964844 88.03125 117.964844 88.605469 C 117.964844 89.179688 117.390625 89.644531 116.6875 89.644531 " fill-opacity="1" fill-rule="nonzero"/><path fill="#e6684c" d="M 70.195312 86.15625 C 69.996094 85.601562 69.886719 85 69.886719 84.375 L 69.886719 84.347656 C 69.886719 83.726562 69.996094 83.128906 70.195312 82.578125 L 66.53125 82.578125 C 66.339844 83.128906 66.234375 83.726562 66.234375 84.347656 L 66.234375 84.375 C 66.234375 85 66.347656 85.601562 66.546875 86.15625 L 70.195312 86.15625 " fill-opacity="1" fill-rule="nonzero"/><path fill="#63aaba" d="M 113.523438 79.078125 L 57.144531 79.078125 C 54.332031 79.078125 52.046875 76.800781 52.046875 73.992188 L 52.046875 73.601562 C 52.046875 70.792969 54.332031 68.515625 57.144531 68.515625 L 113.523438 68.515625 C 116.339844 68.515625 118.625 70.792969 118.625 73.601562 L 118.625 73.992188 C 118.625 76.800781 116.339844 79.078125 113.523438 79.078125 " fill-opacity="1" fill-rule="nonzero"/><path fill="#fde3b9" d="M 118.675781 73.796875 C 118.675781 72.113281 119.882812 70.660156 121.628906 69.976562 C 121.855469 69.886719 121.796875 69.554688 121.558594 69.554688 C 121.554688 69.554688 121.546875 69.554688 121.546875 69.554688 L 90.347656 69.554688 C 87.46875 69.554688 85.136719 71.453125 85.136719 73.796875 C 85.136719 76.140625 87.46875 78.039062 90.347656 78.039062 L 121.546875 78.039062 C 121.546875 78.039062 121.554688 78.039062 121.558594 78.039062 C 121.796875 78.039062 121.855469 77.707031 121.628906 77.621094 C 119.882812 76.9375 118.675781 75.480469 118.675781 73.796875 " fill-opacity="1" fill-rule="nonzero"/><path fill="#c9b593" d="M 91.328125 77.871094 C 89.15625 77.871094 87.390625 76.433594 87.390625 74.664062 C 87.390625 72.898438 89.15625 71.460938 91.328125 71.460938 L 119.539062 71.460938 C 120.058594 70.824219 120.78125 70.308594 121.628906 69.976562 C 121.855469 69.886719 121.796875 69.554688 121.558594 69.554688 C 121.554688 69.554688 121.546875 69.554688 121.546875 69.554688 L 90.347656 69.554688 C 90.011719 69.554688 89.679688 69.582031 89.359375 69.632812 C 87.539062 70.105469 86.0625 71.214844 85.332031 72.644531 C 85.203125 73.011719 85.136719 73.398438 85.136719 73.796875 C 85.136719 76.140625 87.46875 78.039062 90.347656 78.039062 L 121.546875 78.039062 C 121.546875 78.039062 121.554688 78.039062 121.558594 78.039062 C 121.675781 78.039062 121.746094 77.960938 121.765625 77.871094 L 91.328125 77.871094 " fill-opacity="1" fill-rule="nonzero"/><path fill="#c9b593" d="M 116.941406 72.480469 L 92.300781 72.480469 C 92.273438 72.480469 92.25 72.453125 92.25 72.425781 C 92.25 72.394531 92.273438 72.371094 92.300781 72.371094 L 116.941406 72.371094 C 116.972656 72.371094 116.996094 72.394531 116.996094 72.425781 C 116.996094 72.453125 116.972656 72.480469 116.941406 72.480469 " fill-opacity="1" fill-rule="nonzero"/><path fill="#c9b593" d="M 107.765625 73.359375 L 89.601562 73.359375 C 89.570312 73.359375 89.546875 73.335938 89.546875 73.308594 C 89.546875 73.277344 89.570312 73.253906 89.601562 73.253906 L 107.765625 73.253906 C 107.796875 73.253906 107.820312 73.277344 107.820312 73.308594 C 107.820312 73.335938 107.796875 73.359375 107.765625 73.359375 " fill-opacity="1" fill-rule="nonzero"/><path fill="#c9b593" d="M 119.417969 76.1875 L 98.332031 76.1875 C 98.304688 76.1875 98.277344 76.164062 98.277344 76.132812 C 98.277344 76.105469 98.304688 76.078125 98.332031 76.078125 L 119.417969 76.078125 C 119.449219 76.078125 119.472656 76.105469 119.472656 76.132812 C 119.472656 76.164062 119.449219 76.1875 119.417969 76.1875 " fill-opacity="1" fill-rule="nonzero"/><path fill="#c9b593" d="M 114.449219 75.261719 L 91.761719 75.261719 C 91.730469 75.261719 91.707031 75.238281 91.707031 75.210938 C 91.707031 75.179688 91.730469 75.15625 91.761719 75.15625 L 114.449219 75.15625 C 114.480469 75.15625 114.503906 75.179688 114.503906 75.210938 C 114.503906 75.238281 114.480469 75.261719 114.449219 75.261719 " fill-opacity="1" fill-rule="nonzero"/><path fill="#c9b593" d="M 118.683594 74.101562 L 95.335938 74.101562 C 95.304688 74.101562 95.28125 74.078125 95.28125 74.046875 C 95.28125 74.015625 95.304688 73.992188 95.335938 73.992188 L 118.683594 73.992188 C 118.714844 73.992188 118.738281 74.015625 118.738281 74.046875 C 118.738281 74.078125 118.714844 74.101562 118.683594 74.101562 " fill-opacity="1" fill-rule="nonzero"/><path fill="#abd0d9" d="M 121.546875 79.078125 L 90.347656 79.078125 C 86.769531 79.078125 83.859375 76.710938 83.859375 73.796875 C 83.859375 70.886719 86.769531 68.515625 90.347656 68.515625 L 121.546875 68.515625 C 122.25 68.515625 122.820312 68.980469 122.820312 69.554688 C 122.820312 70.128906 122.25 70.59375 121.546875 70.59375 L 90.347656 70.59375 C 88.179688 70.59375 86.410156 72.03125 86.410156 73.796875 C 86.410156 75.5625 88.179688 77 90.347656 77 L 121.546875 77 C 122.25 77 122.820312 77.46875 122.820312 78.039062 C 122.820312 78.613281 122.25 79.078125 121.546875 79.078125 " fill-opacity="1" fill-rule="nonzero"/><path fill="#abd0d9" d="M 80.445312 75.902344 L 58.472656 75.902344 C 57.308594 75.902344 56.363281 74.960938 56.363281 73.796875 C 56.363281 72.636719 57.308594 71.695312 58.472656 71.695312 L 80.445312 71.695312 C 81.609375 71.695312 82.554688 72.636719 82.554688 73.796875 C 82.554688 74.960938 81.609375 75.902344 80.445312 75.902344 " fill-opacity="1" fill-rule="nonzero"/><path fill="#e3cba6" d="M 59.507812 64.304688 C 59.507812 62.695312 57.828125 61.351562 55.574219 61.007812 C 55.941406 60.949219 56.324219 60.917969 56.71875 60.917969 L 107.617188 60.917969 C 110.417969 60.917969 112.691406 62.433594 112.691406 64.304688 C 112.691406 66.171875 110.417969 67.6875 107.617188 67.6875 L 56.71875 67.6875 C 56.324219 67.6875 55.941406 67.65625 55.574219 67.601562 C 57.828125 67.253906 59.507812 65.910156 59.507812 64.304688 " fill-opacity="1" fill-rule="nonzero"/><path fill="#bca686" d="M 55.574219 61.007812 C 56.789062 61.191406 57.835938 61.667969 58.542969 62.316406 L 94.765625 62.316406 C 96.878906 62.316406 98.597656 63.464844 98.597656 64.871094 C 98.597656 66.28125 96.878906 67.429688 94.765625 67.429688 L 56.378906 67.429688 C 56.121094 67.5 55.851562 67.558594 55.574219 67.601562 C 55.941406 67.65625 56.324219 67.6875 56.71875 67.6875 L 99.460938 67.6875 C 100.46875 66.941406 101.085938 65.953125 101.085938 64.871094 C 101.085938 63.0625 99.359375 61.511719 96.945312 60.917969 L 56.71875 60.917969 C 56.324219 60.917969 55.941406 60.949219 55.574219 61.007812 " fill-opacity="1" fill-rule="nonzero"/><path fill="#ffc14d" d="M 56.816406 68.515625 L 107.714844 68.515625 C 111.199219 68.515625 114.035156 66.625 114.035156 64.304688 C 114.035156 61.980469 111.199219 60.089844 107.714844 60.089844 L 56.816406 60.089844 C 56.132812 60.089844 55.574219 60.460938 55.574219 60.917969 C 55.574219 61.375 56.132812 61.75 56.816406 61.75 L 107.714844 61.75 C 109.828125 61.75 111.550781 62.894531 111.550781 64.304688 C 111.550781 65.714844 109.828125 66.859375 107.714844 66.859375 L 56.816406 66.859375 C 56.132812 66.859375 55.574219 67.230469 55.574219 67.6875 C 55.574219 68.144531 56.132812 68.515625 56.816406 68.515625 " fill-opacity="1" fill-rule="nonzero"/><path fill="#bca686" d="M 92.6875 64.285156 L 61.191406 64.285156 C 61.160156 64.285156 61.136719 64.257812 61.136719 64.226562 C 61.136719 64.195312 61.160156 64.171875 61.191406 64.171875 L 92.6875 64.171875 C 92.71875 64.171875 92.746094 64.195312 92.746094 64.226562 C 92.746094 64.257812 92.71875 64.285156 92.6875 64.285156 " fill-opacity="1" fill-rule="nonzero"/><path fill="#bca686" d="M 89.554688 63.613281 L 65.113281 63.613281 C 65.082031 63.613281 65.054688 63.589844 65.054688 63.558594 C 65.054688 63.527344 65.082031 63.5 65.113281 63.5 L 89.554688 63.5 C 89.585938 63.5 89.613281 63.527344 89.613281 63.558594 C 89.613281 63.589844 89.585938 63.613281 89.554688 63.613281 " fill-opacity="1" fill-rule="nonzero"/><path fill="#bca686" d="M 85.402344 65.085938 L 62.78125 65.085938 C 62.75 65.085938 62.726562 65.0625 62.726562 65.03125 C 62.726562 65 62.75 64.972656 62.78125 64.972656 L 85.402344 64.972656 C 85.433594 64.972656 85.457031 65 85.457031 65.03125 C 85.457031 65.0625 85.433594 65.085938 85.402344 65.085938 " fill-opacity="1" fill-rule="nonzero"/><path fill="#bca686" d="M 89.046875 65.792969 L 59.070312 65.792969 C 59.035156 65.792969 59.011719 65.765625 59.011719 65.734375 C 59.011719 65.703125 59.035156 65.679688 59.070312 65.679688 L 89.046875 65.679688 C 89.078125 65.679688 89.105469 65.703125 89.105469 65.734375 C 89.105469 65.765625 89.078125 65.792969 89.046875 65.792969 " fill-opacity="1" fill-rule="nonzero"/><path fill="#bca686" d="M 91.652344 66.285156 L 60.117188 66.285156 C 60.089844 66.285156 60.0625 66.261719 60.0625 66.230469 C 60.0625 66.199219 60.089844 66.171875 60.117188 66.171875 L 91.652344 66.171875 C 91.683594 66.171875 91.707031 66.199219 91.707031 66.230469 C 91.707031 66.261719 91.683594 66.285156 91.652344 66.285156 " fill-opacity="1" fill-rule="nonzero"/><path fill="#bca686" d="M 81.09375 62.976562 L 59.070312 62.976562 C 59.035156 62.976562 59.011719 62.949219 59.011719 62.917969 C 59.011719 62.886719 59.035156 62.863281 59.070312 62.863281 L 81.09375 62.863281 C 81.125 62.863281 81.148438 62.886719 81.148438 62.917969 C 81.148438 62.949219 81.125 62.976562 81.09375 62.976562 " fill-opacity="1" fill-rule="nonzero"/><path fill="#fde3b9" d="M 93.589844 64.304688 C 93.589844 62.695312 91.910156 61.351562 89.65625 61.007812 C 90.023438 60.949219 90.40625 60.917969 90.800781 60.917969 L 114.589844 60.917969 C 117.394531 60.917969 119.667969 62.433594 119.667969 64.304688 C 119.667969 66.171875 117.394531 67.6875 114.589844 67.6875 L 90.800781 67.6875 C 90.40625 67.6875 90.023438 67.65625 89.65625 67.601562 C 91.910156 67.253906 93.589844 65.910156 93.589844 64.304688 " fill-opacity="1" fill-rule="nonzero"/><path fill="#c9b593" d="M 119.667969 64.304688 C 119.667969 62.433594 117.394531 60.917969 114.589844 60.917969 L 90.800781 60.917969 C 90.40625 60.917969 90.023438 60.949219 89.65625 61.007812 C 90.863281 61.191406 91.902344 61.664062 92.613281 62.304688 L 113.726562 62.304688 C 115.839844 62.304688 117.5625 63.453125 117.5625 64.863281 C 117.5625 66.269531 115.839844 67.417969 113.726562 67.417969 L 90.503906 67.417969 C 90.230469 67.492188 89.949219 67.554688 89.65625 67.601562 C 90.023438 67.65625 90.40625 67.6875 90.800781 67.6875 L 114.589844 67.6875 C 117.394531 67.6875 119.667969 66.171875 119.667969 64.304688 " fill-opacity="1" fill-rule="nonzero"/><path fill="#c9b593" d="M 112.691406 63.066406 L 93.191406 63.066406 C 93.164062 63.066406 93.136719 63.042969 93.136719 63.015625 C 93.136719 62.984375 93.164062 62.960938 93.191406 62.960938 L 112.691406 62.960938 C 112.722656 62.960938 112.746094 62.984375 112.746094 63.015625 C 112.746094 63.042969 112.722656 63.066406 112.691406 63.066406 " fill-opacity="1" fill-rule="nonzero"/><path fill="#c9b593" d="M 116.050781 63.8125 L 96.152344 63.8125 C 96.121094 63.8125 96.097656 63.789062 96.097656 63.757812 C 96.097656 63.730469 96.121094 63.707031 96.152344 63.707031 L 116.050781 63.707031 C 116.082031 63.707031 116.105469 63.730469 116.105469 63.757812 C 116.105469 63.789062 116.082031 63.8125 116.050781 63.8125 " fill-opacity="1" fill-rule="nonzero"/><path fill="#c9b593" d="M 113.863281 64.921875 L 94.300781 64.921875 C 94.269531 64.921875 94.246094 64.898438 94.246094 64.867188 C 94.246094 64.835938 94.269531 64.8125 94.300781 64.8125 L 113.863281 64.8125 C 113.894531 64.8125 113.917969 64.835938 113.917969 64.867188 C 113.917969 64.898438 113.894531 64.921875 113.863281 64.921875 " fill-opacity="1" fill-rule="nonzero"/><path fill="#c9b593" d="M 109.652344 65.957031 L 92.976562 65.957031 C 92.945312 65.957031 92.921875 65.933594 92.921875 65.90625 C 92.921875 65.875 92.945312 65.851562 92.976562 65.851562 L 109.652344 65.851562 C 109.683594 65.851562 109.707031 65.875 109.707031 65.90625 C 109.707031 65.933594 109.683594 65.957031 109.652344 65.957031 " fill-opacity="1" fill-rule="nonzero"/><path fill="#ffd085" d="M 90.800781 68.515625 L 114.589844 68.515625 C 118.074219 68.515625 120.910156 66.625 120.910156 64.304688 C 120.910156 61.980469 118.074219 60.089844 114.589844 60.089844 L 90.800781 60.089844 C 90.113281 60.089844 89.554688 60.460938 89.554688 60.917969 C 89.554688 61.375 90.113281 61.75 90.800781 61.75 L 114.589844 61.75 C 116.703125 61.75 118.425781 62.894531 118.425781 64.304688 C 118.425781 65.714844 116.703125 66.859375 114.589844 66.859375 L 90.800781 66.859375 C 90.113281 66.859375 89.554688 67.230469 89.554688 67.6875 C 89.554688 68.144531 90.113281 68.515625 90.800781 68.515625 " fill-opacity="1" fill-rule="nonzero"/><g clip-path="url(#39fbf407cd)"><path fill="#7b6594" d="M 129.773438 51.96875 L 145.457031 100.839844 C 145.714844 101.636719 145.273438 102.492188 144.472656 102.746094 L 136.171875 105.402344 C 135.371094 105.65625 134.515625 105.214844 134.261719 104.417969 L 118.574219 55.546875 C 118.320312 54.75 118.761719 53.898438 119.558594 53.640625 L 127.863281 50.988281 C 128.664062 50.734375 129.519531 51.171875 129.773438 51.96875 " fill-opacity="1" fill-rule="nonzero"/></g><path fill="#625075" d="M 144.335938 97.347656 L 143.078125 93.433594 L 131.882812 97.011719 L 133.140625 100.925781 L 144.335938 97.347656 " fill-opacity="1" fill-rule="nonzero"/><path fill="#625075" d="M 132.445312 60.300781 L 131.191406 56.386719 L 119.996094 59.964844 L 121.25 63.878906 L 132.445312 60.300781 " fill-opacity="1" fill-rule="nonzero"/><path fill="#625075" d="M 129.902344 64.304688 L 138.269531 90.371094 C 138.441406 90.910156 138.144531 91.488281 137.605469 91.660156 L 135.308594 92.394531 C 134.765625 92.566406 134.191406 92.269531 134.015625 91.730469 L 125.652344 65.664062 C 125.480469 65.125 125.777344 64.550781 126.316406 64.375 L 128.613281 63.644531 C 129.152344 63.46875 129.730469 63.765625 129.902344 64.304688 " fill-opacity="1" fill-rule="nonzero"/><path fill="#ee9775" d="M 91.773438 87.148438 C 91.070312 86.832031 89.820312 88.25 89.128906 88.207031 C 88.949219 88.199219 87.878906 87.792969 86.363281 87.183594 C 86.199219 87.476562 86.027344 87.832031 85.960938 88.128906 C 85.898438 88.433594 85.785156 89.007812 85.683594 89.539062 C 85.421875 89.546875 88.054688 89.460938 88.652344 89.429688 C 88.835938 89.421875 89.019531 89.460938 89.1875 89.539062 C 89.546875 89.707031 90.230469 89.933594 90.597656 89.433594 C 91.214844 88.59375 92.183594 87.332031 91.773438 87.148438 " fill-opacity="1" fill-rule="nonzero"/><path fill="#2b2333" d="M 91.773438 87.148438 C 91.386719 86.972656 90.832031 87.328125 90.296875 87.671875 C 90.257812 87.984375 90.175781 88.390625 90 88.699219 C 89.789062 89.070312 89.351562 89.339844 89.054688 89.488281 C 89.101562 89.5 89.148438 89.511719 89.1875 89.539062 C 89.5625 89.785156 90.25 90.007812 90.617188 89.507812 C 91.234375 88.667969 92.183594 87.332031 91.773438 87.148438 " fill-opacity="1" fill-rule="nonzero"/><path fill="#7b6594" d="M 72.824219 81.445312 C 69.796875 79.835938 59.496094 79.03125 59.496094 79.03125 C 59.496094 79.03125 54.914062 78.347656 53.160156 82.082031 C 51.953125 84.648438 52.765625 87.3125 55.707031 87.390625 C 58.632812 87.472656 69.902344 86.765625 72.417969 88.476562 C 74.15625 89.65625 81.542969 90.078125 85.847656 89.964844 C 85.796875 89.425781 85.941406 88.886719 86.066406 88.335938 C 86.210938 87.710938 86.433594 87.394531 86.601562 87.101562 C 82.125 85.304688 73.519531 81.816406 72.824219 81.445312 " fill-opacity="1" fill-rule="nonzero"/><path fill="#463954" d="M 85.929688 89.003906 C 85.925781 89.003906 85.925781 89.003906 85.921875 89.003906 C 85.882812 89 81.769531 88.574219 78.84375 88.203125 C 76.414062 87.890625 70.707031 85.78125 70.648438 85.757812 C 70.617188 85.75 70.605469 85.714844 70.613281 85.6875 C 70.625 85.65625 70.65625 85.644531 70.6875 85.652344 C 70.746094 85.675781 76.4375 87.78125 78.859375 88.089844 C 81.785156 88.464844 85.894531 88.886719 85.933594 88.890625 C 85.964844 88.894531 85.988281 88.921875 85.984375 88.953125 C 85.980469 88.984375 85.957031 89.003906 85.929688 89.003906 " fill-opacity="1" fill-rule="nonzero"/><path fill="#463954" d="M 74.457031 89.179688 C 73.539062 88.984375 72.824219 88.75 72.417969 88.476562 C 69.902344 86.765625 58.632812 87.472656 55.707031 87.390625 C 53.039062 87.320312 52.125 85.125 52.875 82.804688 C 53.851562 81.808594 55.230469 81.445312 56.066406 81.335938 C 58.03125 81.085938 68.175781 81.375 71.367188 83.777344 C 72.496094 84.628906 73.5625 86.746094 74.457031 89.179688 " fill-opacity="1" fill-rule="nonzero"/><path fill="#7b6594" d="M 74.199219 98.242188 C 74.441406 98.140625 75.175781 97.863281 75.488281 97.714844 C 74.75 93.617188 72.597656 85.851562 70.160156 84.011719 C 66.96875 81.609375 56.808594 80.914062 54.847656 81.167969 C 53.257812 81.371094 49.785156 83.945312 50.601562 85.941406 C 50.601562 85.941406 51.992188 90.28125 58.953125 89.566406 C 64.675781 88.984375 65.511719 88.011719 65.96875 88.078125 C 66.421875 88.144531 66.050781 88.957031 67.304688 91.160156 C 68.179688 92.691406 71.101562 96.539062 72.847656 98.828125 C 72.847656 98.828125 73.839844 98.386719 74.199219 98.242188 " fill-opacity="1" fill-rule="nonzero"/><path fill="#463954" d="M 73.691406 98.398438 C 73.667969 98.398438 73.648438 98.386719 73.636719 98.367188 C 73.585938 98.253906 68.296875 87.238281 66.855469 86.554688 C 65.570312 85.941406 64.222656 86.269531 62.515625 86.6875 C 61.246094 86.996094 59.804688 87.347656 58.007812 87.433594 C 53.742188 87.636719 52.316406 84.445312 52.304688 84.410156 C 52.289062 84.382812 52.304688 84.347656 52.332031 84.335938 C 52.359375 84.324219 52.394531 84.339844 52.40625 84.367188 C 52.417969 84.398438 53.8125 87.515625 58.003906 87.320312 C 59.789062 87.234375 61.222656 86.886719 62.488281 86.578125 C 64.21875 86.15625 65.582031 85.824219 66.90625 86.453125 C 68.378906 87.152344 73.523438 97.863281 73.742188 98.316406 C 73.753906 98.347656 73.742188 98.378906 73.714844 98.394531 C 73.707031 98.398438 73.699219 98.398438 73.691406 98.398438 " fill-opacity="1" fill-rule="nonzero"/><path fill="#ee9775" d="M 75.457031 100.273438 C 75.421875 100.023438 75.289062 99.121094 75.058594 97.851562 C 74.746094 98 74.441406 98.140625 74.199219 98.242188 C 73.839844 98.386719 73.441406 98.488281 73.101562 98.554688 C 73.871094 99.5625 74.367188 100.320312 74.265625 100.546875 C 74.070312 100.988281 73.636719 101.1875 74.097656 101.695312 C 74.371094 102 76.882812 103.355469 76.984375 102.710938 C 77.085938 102.070312 75.589844 101.324219 75.457031 100.273438 " fill-opacity="1" fill-rule="nonzero"/><path fill="#2b2333" d="M 77.0625 102.742188 C 77.121094 102.390625 76.621094 101.980469 76.207031 101.535156 C 75.992188 101.53125 75.675781 101.496094 75.304688 101.355469 C 74.886719 101.191406 74.453125 100.90625 74.179688 100.707031 C 73.832031 101.011719 73.613281 101.261719 74.011719 101.703125 C 74.285156 102.007812 76.960938 103.386719 77.0625 102.742188 " fill-opacity="1" fill-rule="nonzero"/><path fill="#ffc14d" d="M 70.226562 80.382812 C 68.949219 79.90625 62.363281 79.664062 59.945312 77.609375 C 59.691406 77.394531 59.390625 77.125 59.066406 76.816406 C 57.691406 75.515625 55.847656 73.492188 54.78125 71.535156 C 53.726562 69.59375 53.433594 67.714844 55.125 66.664062 C 55.148438 66.648438 55.171875 66.632812 55.199219 66.617188 C 55.699219 66.324219 56.210938 66.179688 56.722656 66.207031 C 58.007812 66.269531 59.308594 67.398438 60.480469 69.867188 C 61.292969 71.582031 61.621094 73.558594 63.203125 75.019531 C 66.113281 77.707031 70.636719 79.421875 70.636719 79.421875 C 70.636719 79.421875 70.746094 80.578125 70.226562 80.382812 " fill-opacity="1" fill-rule="nonzero"/><path fill="#99341d" d="M 68.992188 78.4375 C 69.0625 78.496094 69.082031 78.597656 69.039062 78.675781 C 68.933594 78.882812 68.824219 79.289062 68.78125 79.46875 C 68.742188 79.632812 68.695312 79.941406 68.675781 80.128906 C 68.664062 80.230469 68.574219 80.304688 68.46875 80.296875 L 67.769531 80.214844 C 67.652344 80.207031 67.570312 80.097656 67.59375 79.980469 C 67.644531 79.765625 67.722656 79.410156 67.8125 79.0625 C 67.898438 78.699219 68.085938 78.304688 68.210938 78.070312 C 68.265625 77.960938 68.40625 77.929688 68.503906 78.007812 L 68.992188 78.4375 " fill-opacity="1" fill-rule="nonzero"/><path fill="#c7922f" d="M 59.066406 76.816406 C 57.691406 75.515625 55.847656 73.492188 54.78125 71.535156 C 53.9375 69.53125 53.695312 67.574219 55.125 66.664062 C 55.148438 66.648438 55.171875 66.632812 55.199219 66.617188 C 55.699219 66.324219 56.210938 66.179688 56.722656 66.207031 C 57.121094 66.308594 57.03125 66.832031 57.398438 66.964844 C 58.660156 68.820312 59.023438 73.734375 59.066406 76.816406 " fill-opacity="1" fill-rule="nonzero"/><path fill="#ffc14d" d="M 73.652344 82.023438 C 73.636719 82.242188 73.453125 82.410156 73.234375 82.410156 L 71.835938 82.410156 C 71.625 82.410156 71.441406 82.25 71.421875 82.035156 L 71.027344 78.40625 L 73.949219 78.40625 L 73.652344 82.023438 " fill-opacity="1" fill-rule="nonzero"/><path fill="#c7922f" d="M 71.058594 78.6875 L 73.925781 78.6875 L 73.949219 78.40625 L 71.027344 78.40625 L 71.058594 78.6875 " fill-opacity="1" fill-rule="nonzero"/><path fill="#c7922f" d="M 71.015625 79.417969 L 71.136719 80.566406 C 71.144531 80.617188 71.179688 80.660156 71.234375 80.667969 C 71.613281 80.730469 72.070312 80.777344 72.574219 80.777344 C 73.042969 80.777344 73.453125 80.730469 73.800781 80.671875 C 73.855469 80.660156 73.894531 80.617188 73.894531 80.5625 L 73.988281 79.414062 C 73.992188 79.335938 73.921875 79.277344 73.84375 79.292969 C 73.527344 79.367188 73.097656 79.433594 72.574219 79.433594 C 72.015625 79.433594 71.515625 79.363281 71.15625 79.292969 C 71.078125 79.277344 71.007812 79.339844 71.015625 79.417969 " fill-opacity="1" fill-rule="nonzero"/><path fill="#fde3b9" d="M 73.796875 78.316406 L 71.175781 78.316406 C 71.011719 78.316406 70.882812 78.183594 70.882812 78.019531 C 70.882812 77.855469 71.011719 77.726562 71.175781 77.726562 L 73.796875 77.726562 C 73.960938 77.726562 74.09375 77.855469 74.09375 78.019531 C 74.09375 78.183594 73.960938 78.316406 73.796875 78.316406 " fill-opacity="1" fill-rule="nonzero"/><path fill="#fde3b9" d="M 74.101562 78.527344 L 70.871094 78.527344 C 70.726562 78.527344 70.609375 78.410156 70.609375 78.265625 C 70.609375 78.121094 70.726562 78.003906 70.871094 78.003906 L 74.101562 78.003906 C 74.246094 78.003906 74.363281 78.121094 74.363281 78.265625 C 74.363281 78.410156 74.246094 78.527344 74.101562 78.527344 " fill-opacity="1" fill-rule="nonzero"/><path fill="#ee9775" d="M 70.304688 79.492188 C 70.304688 79.492188 70.644531 79.378906 71.089844 79.296875 L 71.160156 80.300781 C 71.199219 80.507812 71.472656 80.484375 71.734375 80.734375 C 72.15625 81.136719 70.832031 80.765625 70.453125 80.535156 C 70.078125 80.304688 69.867188 79.589844 70.304688 79.492188 " fill-opacity="1" fill-rule="nonzero"/><path fill="#ee9775" d="M 69.003906 78.714844 L 68.796875 79.1875 C 68.746094 79.351562 68.644531 79.738281 68.5625 80.058594 C 69.332031 80.171875 69.925781 80.269531 70.226562 80.382812 C 70.746094 80.578125 70.636719 79.421875 70.636719 79.421875 C 70.636719 79.421875 69.976562 79.171875 69.003906 78.714844 " fill-opacity="1" fill-rule="nonzero"/><path fill="#c7922f" d="M 50.59375 64.476562 C 50.59375 64.476562 52.101562 64.234375 52.871094 64.269531 C 53.640625 64.304688 54.132812 64.582031 54.132812 64.582031 L 54.3125 65.976562 L 49.710938 66.398438 L 50.59375 64.476562 " fill-opacity="1" fill-rule="nonzero"/><path fill="#d94929" d="M 58.242188 81.875 C 57.984375 81.9375 56.988281 81.421875 56.988281 81.421875 C 56.988281 81.421875 57.214844 82.1875 57.082031 82.242188 C 53.105469 83.820312 51.945312 87.847656 51.117188 87.101562 C 50.550781 86.597656 49.433594 84.734375 48.5 82.777344 C 48.5 82.777344 48.5 82.777344 48.5 82.773438 C 47.933594 81.601562 47.4375 80.394531 47.160156 79.425781 C 47.140625 79.363281 47.125 79.296875 47.101562 79.230469 C 47.085938 79.164062 47.066406 79.101562 47.046875 79.03125 C 47.046875 79.023438 47.042969 79.019531 47.042969 79.011719 C 47.03125 78.972656 47.019531 78.933594 47.007812 78.894531 C 46.921875 78.578125 46.816406 78.207031 46.707031 77.800781 C 46.691406 77.734375 46.671875 77.664062 46.65625 77.59375 C 46.632812 77.507812 46.609375 77.417969 46.585938 77.328125 C 45.632812 73.671875 44.3125 67.597656 45.835938 66.496094 C 47.722656 65.128906 51.613281 65.21875 52.445312 65.21875 C 53.28125 65.21875 57.441406 65.84375 58.035156 66.949219 C 58.625 68.058594 58.257812 72.117188 58.367188 75.808594 C 58.476562 79.5 61.117188 79.1875 61.117188 79.1875 C 61.117188 79.1875 61.703125 81.054688 58.242188 81.875 " fill-opacity="1" fill-rule="nonzero"/><path fill="#99341d" d="M 56.988281 81.476562 C 56.972656 81.476562 56.953125 81.46875 56.945312 81.453125 C 55.003906 78.730469 54.621094 76.011719 54.253906 72.175781 C 53.90625 68.496094 52.5625 67.160156 52.550781 67.148438 C 52.527344 67.125 52.523438 67.089844 52.546875 67.066406 C 52.570312 67.046875 52.605469 67.046875 52.628906 67.066406 C 52.683594 67.121094 54.015625 68.4375 54.367188 72.164062 C 54.730469 75.984375 55.113281 78.6875 57.035156 81.390625 C 57.054688 81.414062 57.046875 81.449219 57.023438 81.46875 C 57.011719 81.472656 57 81.476562 56.988281 81.476562 " fill-opacity="1" fill-rule="nonzero"/><path fill="#ffc14d" d="M 53.632812 67.617188 C 53.632812 67.707031 53.558594 67.78125 53.464844 67.78125 C 53.375 67.78125 53.300781 67.707031 53.300781 67.617188 C 53.300781 67.523438 53.375 67.449219 53.464844 67.449219 C 53.558594 67.449219 53.632812 67.523438 53.632812 67.617188 " fill-opacity="1" fill-rule="nonzero"/><path fill="#ffc14d" d="M 54.332031 69.3125 C 54.332031 69.402344 54.257812 69.480469 54.167969 69.480469 C 54.074219 69.480469 54 69.402344 54 69.3125 C 54 69.21875 54.074219 69.148438 54.167969 69.148438 C 54.257812 69.148438 54.332031 69.21875 54.332031 69.3125 " fill-opacity="1" fill-rule="nonzero"/><path fill="#ffc14d" d="M 54.789062 71.324219 C 54.789062 71.414062 54.714844 71.492188 54.621094 71.492188 C 54.53125 71.492188 54.457031 71.414062 54.457031 71.324219 C 54.457031 71.234375 54.53125 71.160156 54.621094 71.160156 C 54.714844 71.160156 54.789062 71.234375 54.789062 71.324219 " fill-opacity="1" fill-rule="nonzero"/><path fill="#ffc14d" d="M 55.011719 73.34375 C 55.011719 73.433594 54.9375 73.507812 54.84375 73.507812 C 54.753906 73.507812 54.679688 73.433594 54.679688 73.34375 C 54.679688 73.25 54.753906 73.175781 54.84375 73.175781 C 54.9375 73.175781 55.011719 73.25 55.011719 73.34375 " fill-opacity="1" fill-rule="nonzero"/><path fill="#ffc14d" d="M 55.222656 75.308594 C 55.222656 75.398438 55.148438 75.476562 55.058594 75.476562 C 54.964844 75.476562 54.890625 75.398438 54.890625 75.308594 C 54.890625 75.214844 54.964844 75.140625 55.058594 75.140625 C 55.148438 75.140625 55.222656 75.214844 55.222656 75.308594 " fill-opacity="1" fill-rule="nonzero"/><path fill="#ffc14d" d="M 55.648438 77.328125 C 55.648438 77.421875 55.574219 77.496094 55.484375 77.496094 C 55.390625 77.496094 55.316406 77.421875 55.316406 77.328125 C 55.316406 77.238281 55.390625 77.164062 55.484375 77.164062 C 55.574219 77.164062 55.648438 77.238281 55.648438 77.328125 " fill-opacity="1" fill-rule="nonzero"/><path fill="#ffc14d" d="M 56.40625 79.355469 C 56.40625 79.445312 56.332031 79.519531 56.242188 79.519531 C 56.148438 79.519531 56.074219 79.445312 56.074219 79.355469 C 56.074219 79.261719 56.148438 79.1875 56.242188 79.1875 C 56.332031 79.1875 56.40625 79.261719 56.40625 79.355469 " fill-opacity="1" fill-rule="nonzero"/><path fill="#99341d" d="M 53.195312 72.941406 L 53.199219 72.941406 Z M 52.488281 70.015625 C 52.460938 70.015625 52.429688 70.019531 52.402344 70.027344 L 49.765625 70.558594 C 49.578125 70.597656 49.449219 70.746094 49.476562 70.886719 L 49.96875 73.316406 C 49.988281 73.402344 50.0625 73.476562 50.171875 73.503906 L 51.550781 73.863281 C 51.671875 73.894531 51.808594 73.871094 51.90625 73.796875 L 53.164062 72.898438 C 53.257812 72.828125 53.304688 72.730469 53.285156 72.636719 L 52.796875 70.21875 C 52.78125 70.152344 52.734375 70.09375 52.664062 70.054688 C 52.613281 70.03125 52.550781 70.015625 52.488281 70.015625 Z M 51.65625 73.992188 C 51.609375 73.992188 51.566406 73.984375 51.523438 73.972656 L 50.144531 73.613281 C 49.996094 73.574219 49.886719 73.46875 49.859375 73.339844 L 49.367188 70.910156 C 49.324219 70.707031 49.492188 70.5 49.742188 70.449219 L 52.378906 69.917969 C 52.496094 69.890625 52.617188 69.90625 52.714844 69.957031 C 52.816406 70.007812 52.886719 70.09375 52.90625 70.195312 L 53.398438 72.613281 C 53.425781 72.75 53.359375 72.894531 53.230469 72.988281 L 51.972656 73.890625 C 51.882812 73.957031 51.769531 73.992188 51.65625 73.992188 " fill-opacity="1" fill-rule="nonzero"/><path fill="#99341d" d="M 52.792969 72.746094 L 51.828125 73.4375 C 51.738281 73.503906 51.621094 73.523438 51.515625 73.496094 L 50.457031 73.21875 C 50.359375 73.191406 50.285156 73.125 50.269531 73.039062 L 49.890625 71.167969 C 49.863281 71.03125 49.976562 70.894531 50.144531 70.863281 L 52.171875 70.453125 C 52.339844 70.417969 52.496094 70.5 52.523438 70.632812 L 52.902344 72.5 C 52.921875 72.589844 52.878906 72.683594 52.792969 72.746094 " fill-opacity="1" fill-rule="nonzero"/><path fill="#99341d" d="M 50.816406 64.71875 C 51.273438 64.882812 52.371094 66.292969 52.660156 67.023438 C 52.953125 67.757812 49.496094 65.769531 49.71875 65.542969 C 49.941406 65.3125 50.359375 64.550781 50.816406 64.71875 " fill-opacity="1" fill-rule="nonzero"/><path fill="#99341d" d="M 53.90625 64.820312 C 53.449219 64.984375 52.800781 66.269531 52.507812 67.003906 C 52.214844 67.734375 54.886719 65.96875 54.664062 65.738281 C 54.441406 65.507812 54.359375 64.652344 53.90625 64.820312 " fill-opacity="1" fill-rule="nonzero"/><path fill="#ee9775" d="M 53.902344 65.0625 C 54.199219 65.289062 53.847656 66.605469 52.542969 66.867188 C 51.71875 67.03125 50.28125 65.375 50.53125 65.257812 C 52.011719 64.566406 51.40625 62.511719 51.382812 62.449219 C 51.382812 62.449219 51.382812 62.445312 51.382812 62.445312 L 53.449219 62.695312 C 53.449219 62.695312 53.441406 62.71875 53.429688 62.761719 C 53.425781 62.78125 53.421875 62.800781 53.414062 62.824219 C 53.40625 62.859375 53.398438 62.898438 53.390625 62.941406 C 53.382812 62.976562 53.378906 63.011719 53.371094 63.050781 C 53.367188 63.074219 53.363281 63.101562 53.359375 63.128906 C 53.355469 63.160156 53.351562 63.1875 53.347656 63.21875 C 53.339844 63.246094 53.339844 63.277344 53.335938 63.3125 C 53.335938 63.328125 53.332031 63.34375 53.332031 63.359375 C 53.308594 63.574219 53.304688 63.820312 53.328125 64.082031 C 53.332031 64.117188 53.332031 64.148438 53.339844 64.183594 C 53.351562 64.285156 53.289062 64.582031 53.902344 65.0625 " fill-opacity="1" fill-rule="nonzero"/><path fill="#ffc14d" d="M 50.816406 64.5 C 51.273438 64.667969 52.351562 66.070312 52.644531 66.804688 C 52.933594 67.535156 49.496094 65.554688 49.71875 65.324219 C 49.941406 65.097656 50.359375 64.335938 50.816406 64.5 " fill-opacity="1" fill-rule="nonzero"/><path fill="#ffc14d" d="M 53.90625 64.601562 C 53.449219 64.769531 52.800781 66.054688 52.507812 66.785156 C 52.214844 67.519531 54.886719 65.75 54.664062 65.519531 C 54.441406 65.292969 54.359375 64.4375 53.90625 64.601562 " fill-opacity="1" fill-rule="nonzero"/><path fill="#ee9775" d="M 53.570312 62.902344 C 52.882812 64.246094 51.234375 64.777344 49.886719 64.09375 C 48.542969 63.40625 48.007812 61.761719 48.695312 60.417969 C 49.382812 59.074219 51.03125 58.542969 52.378906 59.230469 C 53.722656 59.914062 54.257812 61.558594 53.570312 62.902344 " fill-opacity="1" fill-rule="nonzero"/><path fill="#2b2333" d="M 52.167969 58.789062 C 50.824219 58.101562 49.085938 58.511719 48.070312 59.625 C 47.6875 60.042969 47.476562 60.640625 47.75 61.21875 C 48.109375 61.976562 48.804688 61.769531 49.582031 61.523438 C 51.042969 61.0625 51.164062 60.183594 51.953125 60.335938 C 52.238281 60.390625 52.339844 60.351562 52.707031 60.792969 C 52.925781 61.054688 53.5625 61.777344 53.75 62.277344 C 54.261719 60.988281 53.433594 59.433594 52.167969 58.789062 " fill-opacity="1" fill-rule="nonzero"/><path fill="#2b2333" d="M 53.617188 62.925781 C 53.691406 62.617188 53.800781 62.328125 53.84375 62.03125 C 53.84375 62.03125 53.464844 61.65625 53.101562 61.234375 C 52.566406 60.617188 52.625 60.113281 52.734375 60.316406 C 52.84375 60.519531 51.433594 59.824219 51.929688 60.488281 C 52.421875 61.152344 52.175781 62.605469 50.664062 63.152344 C 49.746094 63.484375 49.199219 63.234375 48.894531 63.230469 C 48.667969 63.773438 49.335938 65.527344 50.242188 65.582031 C 52.054688 65.691406 53.167969 64.820312 53.617188 62.925781 " fill-opacity="1" fill-rule="nonzero"/><path fill="#ee9775" d="M 53.339844 60.765625 C 53.257812 60.535156 53.054688 60.386719 52.832031 60.355469 C 52.679688 60.335938 52.566406 60.488281 52.617188 60.628906 L 52.875 61.332031 C 52.925781 61.472656 53.113281 61.515625 53.214844 61.402344 C 53.367188 61.234375 53.421875 60.992188 53.339844 60.765625 " fill-opacity="1" fill-rule="nonzero"/><path fill="#bf4124" d="M 48.5 82.773438 C 47.933594 81.601562 47.4375 80.394531 47.160156 79.425781 C 47.140625 79.363281 47.125 79.296875 47.101562 79.230469 C 47.085938 79.164062 47.066406 79.101562 47.046875 79.03125 C 47.046875 79.023438 47.042969 79.019531 47.042969 79.011719 C 47.03125 78.972656 47.019531 78.933594 47.007812 78.894531 C 46.921875 78.578125 46.816406 78.207031 46.707031 77.800781 C 46.691406 77.734375 46.671875 77.664062 46.65625 77.59375 C 46.632812 77.507812 46.609375 77.417969 46.585938 77.328125 L 48.929688 72.402344 C 48.929688 72.402344 48.527344 78.667969 48.5 82.773438 " fill-opacity="1" fill-rule="nonzero"/><path fill="#ffc14d" d="M 47.046875 66.023438 C 51.652344 66.238281 48.285156 75.203125 47.851562 78.351562 C 47.417969 81.503906 44.082031 87.328125 43.445312 88.535156 C 43.1875 89.027344 42.660156 88.347656 42.660156 88.347656 C 42.660156 88.347656 42.804688 82.613281 43.179688 78.65625 C 43.386719 76.507812 43 73.386719 43.207031 71.492188 C 43.523438 68.558594 45.492188 65.949219 47.046875 66.023438 " fill-opacity="1" fill-rule="nonzero"/><path fill="#ee9775" d="M 42.980469 87.957031 C 42.980469 87.957031 41.035156 88.382812 40.652344 89.53125 C 40.449219 90.144531 40.878906 89.714844 41.703125 89.292969 C 42.242188 89.023438 42.453125 89.035156 42.59375 89.132812 C 42.722656 89.21875 42.515625 89.421875 42.425781 89.777344 C 42.28125 90.34375 43.214844 89.324219 43.410156 88.925781 C 43.609375 88.53125 43.40625 87.808594 42.980469 87.957031 " fill-opacity="1" fill-rule="nonzero"/><path fill="#ee9775" d="M 43.484375 86.65625 C 43.242188 86.613281 42.949219 86.488281 42.722656 86.378906 C 42.679688 87.5625 42.660156 88.347656 42.660156 88.347656 C 42.660156 88.347656 43.1875 89.027344 43.445312 88.535156 C 43.605469 88.230469 43.9375 87.632812 44.351562 86.859375 C 44.003906 86.769531 43.667969 86.6875 43.484375 86.65625 " fill-opacity="1" fill-rule="nonzero"/><path fill="#99341d" d="M 43.347656 87.175781 C 43.628906 87.25 44.046875 87.328125 44.195312 87.351562 C 44.230469 87.359375 44.265625 87.34375 44.285156 87.316406 L 44.816406 86.566406 C 44.855469 86.515625 44.828125 86.441406 44.765625 86.425781 C 44.53125 86.363281 44.003906 86.210938 43.566406 86.046875 C 43.191406 85.902344 42.902344 85.707031 42.746094 85.585938 C 42.6875 85.539062 42.605469 85.578125 42.601562 85.652344 L 42.539062 86.789062 C 42.535156 86.828125 42.554688 86.859375 42.589844 86.875 C 42.71875 86.941406 43.070312 87.101562 43.347656 87.175781 " fill-opacity="1" fill-rule="nonzero"/><path fill="#fde3b9" d="M 52.457031 88.730469 L 52.457031 88.957031 L 52.449219 88.957031 C 52.191406 88.949219 51.996094 89.03125 51.878906 89.199219 C 51.867188 89.210938 51.859375 89.226562 51.851562 89.242188 C 51.820312 89.296875 51.78125 89.347656 51.734375 89.394531 L 43.796875 89.394531 L 43.796875 89.308594 L 43.808594 87.875 C 43.8125 87.652344 43.953125 87.457031 44.160156 87.382812 C 44.773438 87.164062 46.167969 86.761719 48.003906 86.761719 C 51.320312 86.761719 52.242188 88.269531 52.421875 88.648438 C 52.445312 88.703125 52.457031 88.730469 52.457031 88.730469 " fill-opacity="1" fill-rule="nonzero"/><path fill="#fde3b9" d="M 61.089844 89.394531 L 53.171875 89.394531 C 53.128906 89.355469 53.09375 89.304688 53.066406 89.253906 C 53.050781 89.234375 53.039062 89.21875 53.023438 89.199219 C 52.90625 89.042969 52.714844 88.964844 52.457031 88.957031 L 52.449219 88.957031 C 52.441406 88.957031 52.433594 88.957031 52.425781 88.953125 L 52.425781 88.730469 C 52.425781 88.730469 52.4375 88.703125 52.464844 88.648438 C 52.640625 88.269531 53.5625 86.761719 56.882812 86.761719 C 58.714844 86.761719 60.109375 87.164062 60.722656 87.382812 C 60.933594 87.457031 61.074219 87.652344 61.074219 87.875 L 61.089844 89.308594 L 61.089844 89.394531 " fill-opacity="1" fill-rule="nonzero"/><path fill="#c9b593" d="M 52.457031 88.785156 L 52.457031 88.957031 L 52.449219 88.957031 C 52.441406 88.957031 52.433594 88.957031 52.425781 88.953125 C 52.179688 88.953125 51.992188 89.035156 51.878906 89.199219 C 51.867188 89.210938 51.859375 89.226562 51.851562 89.242188 C 51.820312 89.296875 51.78125 89.347656 51.734375 89.394531 C 51.71875 89.414062 51.699219 89.433594 51.675781 89.449219 L 43.796875 89.449219 L 43.796875 89.308594 L 43.800781 89.15625 L 51.210938 89.15625 C 51.296875 89.15625 51.371094 89.109375 51.414062 89.035156 C 51.523438 88.84375 51.777344 88.535156 52.304688 88.496094 C 52.339844 88.554688 52.371094 88.605469 52.394531 88.648438 C 52.40625 88.667969 52.414062 88.6875 52.421875 88.703125 C 52.445312 88.757812 52.457031 88.785156 52.457031 88.785156 " fill-opacity="1" fill-rule="nonzero"/><path fill="#c9b593" d="M 51.996094 88.703125 C 51.988281 88.703125 51.980469 88.703125 51.976562 88.695312 C 51.96875 88.683594 51.09375 87.546875 48.957031 87.324219 C 46.839844 87.101562 44.574219 87.734375 44.550781 87.738281 C 44.535156 87.742188 44.523438 87.734375 44.519531 87.71875 C 44.511719 87.707031 44.523438 87.691406 44.535156 87.6875 C 44.558594 87.679688 46.832031 87.046875 48.960938 87.269531 C 51.125 87.496094 52.011719 88.648438 52.019531 88.660156 C 52.027344 88.671875 52.027344 88.691406 52.011719 88.699219 C 52.007812 88.703125 52.003906 88.703125 51.996094 88.703125 " fill-opacity="1" fill-rule="nonzero"/><path fill="#c9b593" d="M 50.429688 88.78125 C 50.425781 88.78125 50.425781 88.78125 50.421875 88.777344 C 50.40625 88.773438 48.699219 88.238281 43.804688 88.757812 C 43.789062 88.761719 43.777344 88.75 43.777344 88.734375 C 43.773438 88.71875 43.785156 88.707031 43.800781 88.703125 C 48.710938 88.183594 50.421875 88.722656 50.4375 88.726562 C 50.453125 88.730469 50.460938 88.746094 50.457031 88.761719 C 50.453125 88.773438 50.441406 88.78125 50.429688 88.78125 " fill-opacity="1" fill-rule="nonzero"/><path fill="#c9b593" d="M 44.542969 89.019531 C 44.53125 89.019531 44.519531 89.011719 44.515625 88.996094 C 44.515625 88.980469 44.527344 88.96875 44.542969 88.964844 C 44.566406 88.964844 47.054688 88.777344 48.640625 88.941406 C 48.65625 88.941406 48.664062 88.957031 48.664062 88.972656 C 48.664062 88.984375 48.648438 88.996094 48.632812 88.996094 C 47.050781 88.832031 44.570312 89.019531 44.546875 89.019531 C 44.542969 89.019531 44.542969 89.019531 44.542969 89.019531 " fill-opacity="1" fill-rule="nonzero"/><path fill="#c9b593" d="M 51.351562 88.675781 C 51.34375 88.675781 51.339844 88.671875 51.335938 88.667969 C 51.320312 88.660156 49.683594 87.605469 47.296875 87.816406 C 47.28125 87.816406 47.265625 87.804688 47.265625 87.789062 C 47.265625 87.773438 47.277344 87.761719 47.292969 87.761719 C 49.695312 87.550781 51.347656 88.613281 51.367188 88.625 C 51.378906 88.632812 51.382812 88.648438 51.375 88.660156 C 51.367188 88.667969 51.359375 88.675781 51.351562 88.675781 " fill-opacity="1" fill-rule="nonzero"/><path fill="#c9b593" d="M 60.9375 87.886719 C 60.933594 87.886719 60.929688 87.886719 60.929688 87.882812 C 60.90625 87.875 58.855469 86.960938 56.554688 87.113281 C 54.847656 87.226562 54.390625 87.539062 53.945312 87.84375 C 53.933594 87.851562 53.917969 87.851562 53.910156 87.835938 C 53.902344 87.824219 53.902344 87.808594 53.917969 87.800781 C 54.367188 87.492188 54.828125 87.171875 56.550781 87.058594 C 58.863281 86.90625 60.929688 87.824219 60.949219 87.832031 C 60.964844 87.839844 60.96875 87.855469 60.964844 87.867188 C 60.957031 87.878906 60.949219 87.886719 60.9375 87.886719 " fill-opacity="1" fill-rule="nonzero"/><path fill="#c9b593" d="M 54.078125 89.050781 C 54.066406 89.050781 54.054688 89.042969 54.050781 89.03125 C 54.046875 89.019531 54.054688 89 54.066406 88.996094 C 54.078125 88.996094 55.042969 88.679688 55.949219 88.621094 C 57.6875 88.507812 59.363281 88.765625 60.265625 88.902344 C 60.527344 88.945312 60.71875 88.972656 60.824219 88.980469 C 60.839844 88.980469 60.851562 88.992188 60.847656 89.007812 C 60.847656 89.023438 60.835938 89.035156 60.820312 89.035156 C 60.714844 89.027344 60.523438 89 60.257812 88.957031 C 59.359375 88.820312 57.6875 88.5625 55.953125 88.675781 C 55.054688 88.730469 54.09375 89.046875 54.085938 89.050781 C 54.082031 89.050781 54.078125 89.050781 54.078125 89.050781 " fill-opacity="1" fill-rule="nonzero"/><path fill="#c9b593" d="M 60.335938 88.523438 C 60.335938 88.523438 60.332031 88.523438 60.332031 88.523438 C 60.238281 88.503906 60.132812 88.476562 60.015625 88.449219 C 59.113281 88.234375 57.441406 87.839844 55.59375 88.230469 C 55.578125 88.234375 55.5625 88.222656 55.558594 88.207031 C 55.558594 88.195312 55.566406 88.179688 55.582031 88.175781 C 57.441406 87.78125 59.121094 88.183594 60.027344 88.394531 C 60.144531 88.425781 60.25 88.449219 60.34375 88.46875 C 60.359375 88.472656 60.367188 88.488281 60.363281 88.5 C 60.363281 88.515625 60.351562 88.523438 60.335938 88.523438 " fill-opacity="1" fill-rule="nonzero"/><path fill="#c9b593" d="M 53.117188 88.847656 C 53.113281 88.847656 53.105469 88.847656 53.101562 88.839844 C 53.089844 88.832031 53.089844 88.8125 53.101562 88.804688 C 53.109375 88.792969 53.945312 87.941406 55.066406 87.679688 C 57.230469 87.171875 58.679688 87.5625 59.546875 87.800781 L 59.667969 87.832031 C 59.683594 87.835938 59.691406 87.851562 59.6875 87.867188 C 59.683594 87.878906 59.667969 87.886719 59.652344 87.886719 L 59.535156 87.851562 C 58.671875 87.617188 57.226562 87.226562 55.078125 87.730469 C 53.972656 87.992188 53.144531 88.832031 53.136719 88.839844 C 53.132812 88.847656 53.125 88.847656 53.117188 88.847656 " fill-opacity="1" fill-rule="nonzero"/><path fill="#c9b593" d="M 61.117188 89.449219 L 53.230469 89.449219 C 53.210938 89.433594 53.191406 89.414062 53.171875 89.394531 C 53.128906 89.355469 53.09375 89.304688 53.066406 89.253906 C 53.050781 89.234375 53.039062 89.21875 53.023438 89.199219 C 52.90625 89.042969 52.714844 88.964844 52.457031 88.957031 L 52.457031 88.785156 C 52.457031 88.785156 52.464844 88.757812 52.480469 88.703125 C 52.488281 88.6875 52.492188 88.671875 52.5 88.652344 C 52.511719 88.609375 52.527344 88.558594 52.546875 88.496094 C 53.113281 88.539062 53.382812 88.851562 53.496094 89.035156 C 53.539062 89.109375 53.617188 89.15625 53.695312 89.15625 L 61.117188 89.15625 L 61.117188 89.449219 " fill-opacity="1" fill-rule="nonzero"/><path fill="#8c301a" d="M 61.605469 89.496094 C 61.605469 89.582031 61.535156 89.648438 61.453125 89.648438 L 53.695312 89.648438 C 53.523438 89.648438 53.359375 89.585938 53.230469 89.480469 C 53.210938 89.464844 53.191406 89.445312 53.171875 89.425781 C 53.128906 89.382812 53.09375 89.335938 53.066406 89.285156 C 53.050781 89.265625 53.039062 89.246094 53.023438 89.230469 C 52.90625 89.074219 52.714844 88.992188 52.457031 88.984375 L 52.449219 88.984375 C 52.441406 88.984375 52.433594 88.984375 52.425781 88.984375 C 52.179688 88.984375 51.992188 89.066406 51.878906 89.230469 C 51.867188 89.242188 51.859375 89.257812 51.851562 89.273438 C 51.820312 89.328125 51.78125 89.378906 51.734375 89.425781 C 51.71875 89.445312 51.699219 89.464844 51.675781 89.480469 C 51.546875 89.585938 51.382812 89.648438 51.210938 89.648438 L 43.519531 89.648438 C 43.433594 89.648438 43.363281 89.578125 43.363281 89.496094 C 43.363281 89.410156 43.433594 89.339844 43.519531 89.339844 L 51.210938 89.339844 C 51.296875 89.339844 51.371094 89.296875 51.414062 89.21875 C 51.527344 89.019531 51.804688 88.6875 52.394531 88.679688 L 52.421875 88.679688 C 52.433594 88.679688 52.449219 88.679688 52.464844 88.679688 C 52.46875 88.679688 52.476562 88.679688 52.480469 88.679688 C 52.488281 88.679688 52.492188 88.679688 52.5 88.679688 C 53.097656 88.707031 53.378906 89.03125 53.496094 89.222656 C 53.539062 89.296875 53.617188 89.339844 53.695312 89.339844 L 61.453125 89.339844 C 61.539062 89.339844 61.605469 89.410156 61.605469 89.496094 " fill-opacity="1" fill-rule="nonzero"/></svg>